<svg version="1.1" xmlns="http://www.w3.org/2000/svg" xmlns:xlink="http://www.w3.org/1999/xlink" width="1134.2353515625" height="956"><defs/><g><g transform="translate(-22,10) scale(1,1)"><rect fill="#C0C0C0" stroke="none" x="423" y="39" width="183.02734375" height="100" opacity="0.2"/></g><g transform="translate(-22,10) scale(1,1)"><rect fill="#ffffff" stroke="none" x="416" y="32" width="183.02734375" height="100"/></g><g transform="translate(-22,10) scale(1,1)"><path fill="none" stroke="#000000" d="M 416 32 L 599.02734375 32 L 599.02734375 132 L 416 132 L 416 32 Z Z" stroke-miterlimit="10"/></g><g transform="translate(-22,10) scale(1,1)"><path fill="none" stroke="#000000" d="M 416 57 L 599.02734375 57" stroke-miterlimit="10"/></g><g transform="translate(-22,10) scale(1,1)"><path fill="none" stroke="#000000" d="M 416 80 L 599.02734375 80" stroke-miterlimit="10"/></g><g transform="translate(-22,10) scale(1,1)"><g><path fill="none" stroke="none"/><text fill="#000000" stroke="none" font-family="Arial" font-size="13px" font-style="normal" font-weight="bold" text-decoration="none" x="482.938720703125" y="51.5">Location</text></g></g><g transform="translate(-22,10) scale(1,1)"><g><path fill="none" stroke="none"/><text fill="#000000" stroke="none" font-family="Arial" font-size="13px" font-style="normal" font-weight="normal" text-decoration="none" x="421" y="74.5">+dimensions</text></g></g><g transform="translate(-22,10) scale(1,1)"><g><path fill="none" stroke="none"/><text fill="#000000" stroke="none" font-family="Arial" font-size="13px" font-style="normal" font-weight="normal" text-decoration="none" x="421" y="97.5">+getTile(coordinates)</text></g></g><g transform="translate(-22,10) scale(1,1)"><path fill="#C0C0C0" stroke="none" d="M 841.285400390625 753.5 C 841.285400390625 738.8644528 853.149853190625 727 867.785400390625 727 C 882.420947590625 727 894.285400390625 738.8644528 894.285400390625 753.5 C 894.285400390625 768.1355472 882.420947590625 780 867.785400390625 780 C 853.149853190625 780 841.285400390625 768.1355472 841.285400390625 753.5 Z" opacity="0.2"/></g><g transform="translate(-22,10) scale(1,1)"><path fill="#ffffff" stroke="none" d="M 834.285400390625 746.5 C 834.285400390625 731.8644528 846.149853190625 720 860.785400390625 720 C 875.420947590625 720 887.285400390625 731.8644528 887.285400390625 746.5 C 887.285400390625 761.1355472 875.420947590625 773 860.785400390625 773 C 846.149853190625 773 834.285400390625 761.1355472 834.285400390625 746.5 Z"/></g><g transform="translate(-22,10) scale(1,1)"><path fill="none" stroke="#000000" d="M 834.285400390625 746.5 C 834.285400390625 731.8644528 846.149853190625 720 860.785400390625 720 C 875.420947590625 720 887.285400390625 731.8644528 887.285400390625 746.5 C 887.285400390625 761.1355472 875.420947590625 773 860.785400390625 773 C 846.149853190625 773 834.285400390625 761.1355472 834.285400390625 746.5 Z" stroke-miterlimit="10"/></g><g transform="translate(-22,10) scale(1,1)"><path fill="none" stroke="#000000" d="M 816 798 L 905.57080078125 798" stroke-miterlimit="10"/></g><g transform="translate(-22,10) scale(1,1)"><g><path fill="none" stroke="none"/><text fill="#000000" stroke="none" font-family="Arial" font-size="13px" font-style="normal" font-weight="bold" text-decoration="none" x="833.32861328125" y="792.5">Drawable</text></g></g><g transform="translate(-22,10) scale(1,1)"><g><path fill="none" stroke="none"/><text fill="#000000" stroke="none" font-family="Arial" font-size="13px" font-style="normal" font-weight="normal" text-decoration="none" x="821" y="815.5">+draw()</text></g></g><g transform="translate(-22,10) scale(1,1)"><rect fill="#C0C0C0" stroke="none" x="95" y="719" width="94.6298828125" height="44" opacity="0.2"/></g><g transform="translate(-22,10) scale(1,1)"><rect fill="#ffffff" stroke="none" x="88" y="712" width="94.6298828125" height="44"/></g><g transform="translate(-22,10) scale(1,1)"><path fill="none" stroke="#000000" d="M 88 712 L 182.6298828125 712 L 182.6298828125 756 L 88 756 L 88 712 Z Z" stroke-miterlimit="10"/></g><g transform="translate(-22,10) scale(1,1)"><path fill="none" stroke="#000000" d="M 88 737 L 182.6298828125 737" stroke-miterlimit="10"/></g><g transform="translate(-22,10) scale(1,1)"><path fill="none" stroke="#000000" d="M 88 747 L 182.6298828125 747" stroke-miterlimit="10"/></g><g transform="translate(-22,10) scale(1,1)"><g><path fill="none" stroke="none"/><text fill="#000000" stroke="none" font-family="Arial" font-size="13px" font-style="normal" font-weight="bold" text-decoration="none" x="116.51953125" y="731.5">Sheep</text></g></g><g transform="translate(-22,10) scale(1,1)"><rect fill="#C0C0C0" stroke="none" x="919" y="871" width="106.53173828125" height="72" opacity="0.2"/></g><g transform="translate(-22,10) scale(1,1)"><rect fill="#ffffff" stroke="none" x="912" y="864" width="106.53173828125" height="72"/></g><g transform="translate(-22,10) scale(1,1)"><path fill="none" stroke="#000000" d="M 912 864 L 1018.53173828125 864 L 1018.53173828125 936 L 912 936 L 912 864 Z Z" stroke-miterlimit="10"/></g><g transform="translate(-22,10) scale(1,1)"><path fill="none" stroke="#000000" d="M 912 889 L 1018.53173828125 889" stroke-miterlimit="10"/></g><g transform="translate(-22,10) scale(1,1)"><path fill="none" stroke="#000000" d="M 912 927 L 1018.53173828125 927" stroke-miterlimit="10"/></g><g transform="translate(-22,10) scale(1,1)"><g><path fill="none" stroke="none"/><text fill="#000000" stroke="none" font-family="Arial" font-size="13px" font-style="normal" font-weight="bold" text-decoration="none" x="919.02001953125" y="883.5">DrawableHealth</text></g></g><g transform="translate(-22,10) scale(1,1)"><g><path fill="none" stroke="none"/><text fill="#000000" stroke="none" font-family="Arial" font-size="13px" font-style="normal" font-weight="normal" text-decoration="none" x="917" y="906.5">+underlying</text></g></g><g transform="translate(-22,10) scale(1,1)"><g><path fill="none" stroke="none"/><text fill="#000000" stroke="none" font-family="Arial" font-size="13px" font-style="normal" font-weight="normal" text-decoration="none" x="917" y="921.5">+health</text></g></g><g transform="translate(-22,10) scale(1,1)"><rect fill="#C0C0C0" stroke="none" x="855" y="575" width="72.2353515625" height="72" opacity="0.2"/></g><g transform="translate(-22,10) scale(1,1)"><rect fill="#ffffff" stroke="none" x="848" y="568" width="72.2353515625" height="72"/></g><g transform="translate(-22,10) scale(1,1)"><path fill="none" stroke="#000000" d="M 848 568 L 920.2353515625 568 L 920.2353515625 640 L 848 640 L 848 568 Z Z" stroke-miterlimit="10"/></g><g transform="translate(-22,10) scale(1,1)"><path fill="none" stroke="#000000" d="M 848 593 L 920.2353515625 593" stroke-miterlimit="10"/></g><g transform="translate(-22,10) scale(1,1)"><path fill="none" stroke="#000000" d="M 848 631 L 920.2353515625 631" stroke-miterlimit="10"/></g><g transform="translate(-22,10) scale(1,1)"><g><path fill="none" stroke="none"/><text fill="#000000" stroke="none" font-family="Arial" font-size="13px" font-style="normal" font-weight="bold" text-decoration="none" x="865.32861328125" y="587.5">Health</text></g></g><g transform="translate(-22,10) scale(1,1)"><g><path fill="none" stroke="none"/><text fill="#000000" stroke="none" font-family="Arial" font-size="13px" font-style="normal" font-weight="normal" text-decoration="none" x="853" y="610.5">+current</text></g></g><g transform="translate(-22,10) scale(1,1)"><g><path fill="none" stroke="none"/><text fill="#000000" stroke="none" font-family="Arial" font-size="13px" font-style="normal" font-weight="normal" text-decoration="none" x="853" y="625.5">+max</text></g></g><g transform="translate(-22,10) scale(1,1)"><rect fill="#C0C0C0" stroke="none" x="199" y="39" width="174.85791015625" height="115" opacity="0.2"/></g><g transform="translate(-22,10) scale(1,1)"><rect fill="#ffffff" stroke="none" x="192" y="32" width="174.85791015625" height="115"/></g><g transform="translate(-22,10) scale(1,1)"><path fill="none" stroke="#000000" d="M 192 32 L 366.85791015625 32 L 366.85791015625 147 L 192 147 L 192 32 Z Z" stroke-miterlimit="10"/></g><g transform="translate(-22,10) scale(1,1)"><path fill="none" stroke="#000000" d="M 192 57 L 366.85791015625 57" stroke-miterlimit="10"/></g><g transform="translate(-22,10) scale(1,1)"><path fill="none" stroke="#000000" d="M 192 80 L 366.85791015625 80" stroke-miterlimit="10"/></g><g transform="translate(-22,10) scale(1,1)"><g><path fill="none" stroke="none"/><text fill="#000000" stroke="none" font-family="Arial" font-size="13px" font-style="normal" font-weight="bold" text-decoration="none" x="262.57275390625" y="51.5">World</text></g></g><g transform="translate(-22,10) scale(1,1)"><g><path fill="none" stroke="none"/><text fill="#000000" stroke="none" font-family="Arial" font-size="13px" font-style="normal" font-weight="normal" text-decoration="none" x="197" y="74.5">+currentLocation</text></g></g><g transform="translate(-22,10) scale(1,1)"><g><path fill="none" stroke="none"/><text fill="#000000" stroke="none" font-family="Arial" font-size="13px" font-style="normal" font-weight="normal" text-decoration="none" x="197" y="97.5">+getHomeLocation()</text></g></g><g transform="translate(-22,10) scale(1,1)"><g><path fill="none" stroke="none"/><text fill="#000000" stroke="none" font-family="Arial" font-size="13px" font-style="normal" font-weight="normal" text-decoration="none" x="197" y="112.5">+generateRandomLocation()</text></g></g><g transform="translate(-22,10) scale(1,1)"><g><path fill="none" stroke="none"/><text fill="#000000" stroke="none" font-family="Arial" font-size="13px" font-style="normal" font-weight="normal" text-decoration="none" x="197" y="127.5">+getTempleLocation()</text></g></g><g transform="translate(-22,10) scale(1,1)"><g><path fill="none" stroke="none"/><text fill="#000000" stroke="none" font-family="Arial" font-size="13px" font-style="normal" font-weight="normal" text-decoration="none" x="197" y="142.5">+getPlayer()</text></g></g><g transform="translate(-22,10) scale(1,1)"><rect fill="#C0C0C0" stroke="none" x="759" y="871" width="104.37353515625" height="44" opacity="0.2"/></g><g transform="translate(-22,10) scale(1,1)"><rect fill="#ffffff" stroke="none" x="752" y="864" width="104.37353515625" height="44"/></g><g transform="translate(-22,10) scale(1,1)"><path fill="none" stroke="#000000" d="M 752 864 L 856.37353515625 864 L 856.37353515625 908 L 752 908 L 752 864 Z Z" stroke-miterlimit="10"/></g><g transform="translate(-22,10) scale(1,1)"><path fill="none" stroke="#000000" d="M 752 889 L 856.37353515625 889" stroke-miterlimit="10"/></g><g transform="translate(-22,10) scale(1,1)"><path fill="none" stroke="#000000" d="M 752 899 L 856.37353515625 899" stroke-miterlimit="10"/></g><g transform="translate(-22,10) scale(1,1)"><g><path fill="none" stroke="none"/><text fill="#000000" stroke="none" font-family="Arial" font-size="13px" font-style="normal" font-weight="bold" text-decoration="none" x="758.66455078125" y="883.5">DrawableImage</text></g></g><g transform="translate(-22,10) scale(1,1)"><path fill="#C0C0C0" stroke="none" d="M 286.85009765625 522.5 C 286.85009765625 516.1487248 291.99882245625 511 298.35009765625 511 C 304.70137285625 511 309.85009765625 516.1487248 309.85009765625 522.5 C 309.85009765625 528.8512752 304.70137285625 534 298.35009765625 534 C 291.99882245625 534 286.85009765625 528.8512752 286.85009765625 522.5 Z" opacity="0.2"/></g><g transform="translate(-22,10) scale(1,1)"><path fill="#ffffff" stroke="none" d="M 279.85009765625 515.5 C 279.85009765625 509.1487248 284.99882245625 504 291.35009765625 504 C 297.70137285625 504 302.85009765625 509.1487248 302.85009765625 515.5 C 302.85009765625 521.8512752 297.70137285625 527 291.35009765625 527 C 284.99882245625 527 279.85009765625 521.8512752 279.85009765625 515.5 Z"/></g><g transform="translate(-22,10) scale(1,1)"><path fill="none" stroke="#000000" d="M 279.85009765625 515.5 C 279.85009765625 509.1487248 284.99882245625 504 291.35009765625 504 C 297.70137285625 504 302.85009765625 509.1487248 302.85009765625 515.5 C 302.85009765625 521.8512752 297.70137285625 527 291.35009765625 527 C 284.99882245625 527 279.85009765625 521.8512752 279.85009765625 515.5 Z" stroke-miterlimit="10"/></g><g transform="translate(-22,10) scale(1,1)"><path fill="none" stroke="#000000" d="M 232 552 L 350.7001953125 552" stroke-miterlimit="10"/></g><g transform="translate(-22,10) scale(1,1)"><g><path fill="none" stroke="none"/><text fill="#000000" stroke="none" font-family="Arial" font-size="13px" font-style="normal" font-weight="bold" text-decoration="none" x="277.62646484375" y="546.5">NPC</text></g></g><g transform="translate(-22,10) scale(1,1)"><g><path fill="none" stroke="none"/><text fill="#000000" stroke="none" font-family="Arial" font-size="13px" font-style="normal" font-weight="normal" text-decoration="none" x="237" y="569.5">+takeTurn()</text></g></g><g transform="translate(-22,10) scale(1,1)"><g><path fill="none" stroke="none"/><text fill="#000000" stroke="none" font-family="Arial" font-size="13px" font-style="normal" font-weight="normal" text-decoration="none" x="237" y="584.5">+getCoordinates()</text></g></g><g transform="translate(-22,10) scale(1,1)"><g><path fill="none" stroke="none"/><text fill="#000000" stroke="none" font-family="Arial" font-size="13px" font-style="normal" font-weight="normal" text-decoration="none" x="237" y="599.5">+getHealth()</text></g></g><g transform="translate(-22,10) scale(1,1)"><g><path fill="none" stroke="none"/><text fill="#000000" stroke="none" font-family="Arial" font-size="13px" font-style="normal" font-weight="normal" text-decoration="none" x="237" y="614.5">+getDrawableTile()</text></g></g><g transform="translate(-22,10) scale(1,1)"><rect fill="#C0C0C0" stroke="none" x="559" y="191" width="89.57080078125" height="72" opacity="0.2"/></g><g transform="translate(-22,10) scale(1,1)"><rect fill="#ffffff" stroke="none" x="552" y="184" width="89.57080078125" height="72"/></g><g transform="translate(-22,10) scale(1,1)"><path fill="none" stroke="#000000" d="M 552 184 L 641.57080078125 184 L 641.57080078125 256 L 552 256 L 552 184 Z Z" stroke-miterlimit="10"/></g><g transform="translate(-22,10) scale(1,1)"><path fill="none" stroke="#000000" d="M 552 209 L 641.57080078125 209" stroke-miterlimit="10"/></g><g transform="translate(-22,10) scale(1,1)"><path fill="none" stroke="#000000" d="M 552 247 L 641.57080078125 247" stroke-miterlimit="10"/></g><g transform="translate(-22,10) scale(1,1)"><g><path fill="none" stroke="none"/><text fill="#000000" stroke="none" font-family="Arial" font-size="13px" font-style="normal" font-weight="bold" text-decoration="none" x="561.73681640625" y="203.5">Coordinates</text></g></g><g transform="translate(-22,10) scale(1,1)"><g><path fill="none" stroke="none"/><text fill="#000000" stroke="none" font-family="Arial" font-size="13px" font-style="normal" font-weight="normal" text-decoration="none" x="557" y="226.5">+x</text></g></g><g transform="translate(-22,10) scale(1,1)"><g><path fill="none" stroke="none"/><text fill="#000000" stroke="none" font-family="Arial" font-size="13px" font-style="normal" font-weight="normal" text-decoration="none" x="557" y="241.5">+y</text></g></g><g transform="translate(-22,10) scale(1,1)"><rect fill="#C0C0C0" stroke="none" x="255" y="735" width="144.08447265625" height="44" opacity="0.2"/></g><g transform="translate(-22,10) scale(1,1)"><rect fill="#ffffff" stroke="none" x="248" y="728" width="144.08447265625" height="44"/></g><g transform="translate(-22,10) scale(1,1)"><path fill="none" stroke="#000000" d="M 248 728 L 392.08447265625 728 L 392.08447265625 772 L 248 772 L 248 728 Z Z" stroke-miterlimit="10"/></g><g transform="translate(-22,10) scale(1,1)"><path fill="none" stroke="#000000" d="M 248 753 L 392.08447265625 753" stroke-miterlimit="10"/></g><g transform="translate(-22,10) scale(1,1)"><path fill="none" stroke="#000000" d="M 248 763 L 392.08447265625 763" stroke-miterlimit="10"/></g><g transform="translate(-22,10) scale(1,1)"><g><path fill="none" stroke="none"/><text fill="#000000" stroke="none" font-family="Arial" font-size="13px" font-style="normal" font-weight="bold" text-decoration="none" x="258.635009765625" y="747.5">AlgorithmsSeminarist</text></g></g><g transform="translate(-22,10) scale(1,1)"><rect fill="#C0C0C0" stroke="none" x="39" y="663" width="53.7763671875" height="44" opacity="0.2"/></g><g transform="translate(-22,10) scale(1,1)"><rect fill="#ffffff" stroke="none" x="32" y="656" width="53.7763671875" height="44"/></g><g transform="translate(-22,10) scale(1,1)"><path fill="none" stroke="#000000" d="M 32 656 L 85.7763671875 656 L 85.7763671875 700 L 32 700 L 32 656 Z Z" stroke-miterlimit="10"/></g><g transform="translate(-22,10) scale(1,1)"><path fill="none" stroke="#000000" d="M 32 681 L 85.7763671875 681" stroke-miterlimit="10"/></g><g transform="translate(-22,10) scale(1,1)"><path fill="none" stroke="#000000" d="M 32 691 L 85.7763671875 691" stroke-miterlimit="10"/></g><g transform="translate(-22,10) scale(1,1)"><g><path fill="none" stroke="none"/><text fill="#000000" stroke="none" font-family="Arial" font-size="13px" font-style="normal" font-weight="bold" text-decoration="none" x="38.293212890625" y="675.5">Gopnik</text></g></g><g transform="translate(-22,10) scale(1,1)"><rect fill="#C0C0C0" stroke="none" x="487" y="727" width="86.2890625" height="44" opacity="0.2"/></g><g transform="translate(-22,10) scale(1,1)"><rect fill="#ffffff" stroke="none" x="480" y="720" width="86.2890625" height="44"/></g><g transform="translate(-22,10) scale(1,1)"><path fill="none" stroke="#000000" d="M 480 720 L 566.2890625 720 L 566.2890625 764 L 480 764 L 480 720 Z Z" stroke-miterlimit="10"/></g><g transform="translate(-22,10) scale(1,1)"><path fill="none" stroke="#000000" d="M 480 745 L 566.2890625 745" stroke-miterlimit="10"/></g><g transform="translate(-22,10) scale(1,1)"><path fill="none" stroke="#000000" d="M 480 755 L 566.2890625 755" stroke-miterlimit="10"/></g><g transform="translate(-22,10) scale(1,1)"><g><path fill="none" stroke="none"/><text fill="#000000" stroke="none" font-family="Arial" font-size="13px" font-style="normal" font-weight="bold" text-decoration="none" x="487.734130859375" y="739.5">AKhoroshev</text></g></g><g transform="translate(-22,10) scale(1,1)"><rect fill="#C0C0C0" stroke="none" x="479" y="663" width="187.43896484375" height="44" opacity="0.2"/></g><g transform="translate(-22,10) scale(1,1)"><rect fill="#ffffff" stroke="none" x="472" y="656" width="187.43896484375" height="44"/></g><g transform="translate(-22,10) scale(1,1)"><path fill="none" stroke="#000000" d="M 472 656 L 659.43896484375 656 L 659.43896484375 700 L 472 700 L 472 656 Z Z" stroke-miterlimit="10"/></g><g transform="translate(-22,10) scale(1,1)"><path fill="none" stroke="#000000" d="M 472 681 L 659.43896484375 681" stroke-miterlimit="10"/></g><g transform="translate(-22,10) scale(1,1)"><path fill="none" stroke="#000000" d="M 472 691 L 659.43896484375 691" stroke-miterlimit="10"/></g><g transform="translate(-22,10) scale(1,1)"><g><path fill="none" stroke="none"/><text fill="#000000" stroke="none" font-family="Arial" font-size="13px" font-style="normal" font-weight="bold" text-decoration="none" x="482.622314453125" y="675.5">FormalLanguagesSeminarist</text></g></g><g transform="translate(-22,10) scale(1,1)"><rect fill="#C0C0C0" stroke="none" x="335" y="679" width="94.9853515625" height="44" opacity="0.2"/></g><g transform="translate(-22,10) scale(1,1)"><rect fill="#ffffff" stroke="none" x="328" y="672" width="94.9853515625" height="44"/></g><g transform="translate(-22,10) scale(1,1)"><path fill="none" stroke="#000000" d="M 328 672 L 422.9853515625 672 L 422.9853515625 716 L 328 716 L 328 672 Z Z" stroke-miterlimit="10"/></g><g transform="translate(-22,10) scale(1,1)"><path fill="none" stroke="#000000" d="M 328 697 L 422.9853515625 697" stroke-miterlimit="10"/></g><g transform="translate(-22,10) scale(1,1)"><path fill="none" stroke="#000000" d="M 328 707 L 422.9853515625 707" stroke-miterlimit="10"/></g><g transform="translate(-22,10) scale(1,1)"><g><path fill="none" stroke="none"/><text fill="#000000" stroke="none" font-family="Arial" font-size="13px" font-style="normal" font-weight="bold" text-decoration="none" x="335.270751953125" y="691.5">AlexanderTral</text></g></g><g transform="translate(-22,10) scale(1,1)"><rect fill="#C0C0C0" stroke="none" x="119" y="663" width="50.919921875" height="44" opacity="0.2"/></g><g transform="translate(-22,10) scale(1,1)"><rect fill="#ffffff" stroke="none" x="112" y="656" width="50.919921875" height="44"/></g><g transform="translate(-22,10) scale(1,1)"><path fill="none" stroke="#000000" d="M 112 656 L 162.919921875 656 L 162.919921875 700 L 112 700 L 112 656 Z Z" stroke-miterlimit="10"/></g><g transform="translate(-22,10) scale(1,1)"><path fill="none" stroke="#000000" d="M 112 681 L 162.919921875 681" stroke-miterlimit="10"/></g><g transform="translate(-22,10) scale(1,1)"><path fill="none" stroke="#000000" d="M 112 691 L 162.919921875 691" stroke-miterlimit="10"/></g><g transform="translate(-22,10) scale(1,1)"><g><path fill="none" stroke="none"/><text fill="#000000" stroke="none" font-family="Arial" font-size="13px" font-style="normal" font-weight="bold" text-decoration="none" x="119.39453125" y="675.5">Kuzya</text></g></g><g transform="translate(-22,10) scale(1,1)"><rect fill="#C0C0C0" stroke="none" x="215" y="663" width="93.35400390625" height="44" opacity="0.2"/></g><g transform="translate(-22,10) scale(1,1)"><rect fill="#ffffff" stroke="none" x="208" y="656" width="93.35400390625" height="44"/></g><g transform="translate(-22,10) scale(1,1)"><path fill="none" stroke="#000000" d="M 208 656 L 301.35400390625 656 L 301.35400390625 700 L 208 700 L 208 656 Z Z" stroke-miterlimit="10"/></g><g transform="translate(-22,10) scale(1,1)"><path fill="none" stroke="#000000" d="M 208 681 L 301.35400390625 681" stroke-miterlimit="10"/></g><g transform="translate(-22,10) scale(1,1)"><path fill="none" stroke="#000000" d="M 208 691 L 301.35400390625 691" stroke-miterlimit="10"/></g><g transform="translate(-22,10) scale(1,1)"><g><path fill="none" stroke="none"/><text fill="#000000" stroke="none" font-family="Arial" font-size="13px" font-style="normal" font-weight="bold" text-decoration="none" x="215.302490234375" y="675.5">DBWithRobot</text></g></g><g transform="translate(-22,10) scale(1,1)"><rect fill="#C0C0C0" stroke="none" x="703" y="663" width="131.8017578125" height="44" opacity="0.2"/></g><g transform="translate(-22,10) scale(1,1)"><rect fill="#ffffff" stroke="none" x="696" y="656" width="131.8017578125" height="44"/></g><g transform="translate(-22,10) scale(1,1)"><path fill="none" stroke="#000000" d="M 696 656 L 827.8017578125 656 L 827.8017578125 700 L 696 700 L 696 656 Z Z" stroke-miterlimit="10"/></g><g transform="translate(-22,10) scale(1,1)"><path fill="none" stroke="#000000" d="M 696 681 L 827.8017578125 681" stroke-miterlimit="10"/></g><g transform="translate(-22,10) scale(1,1)"><path fill="none" stroke="#000000" d="M 696 691 L 827.8017578125 691" stroke-miterlimit="10"/></g><g transform="translate(-22,10) scale(1,1)"><g><path fill="none" stroke="none"/><text fill="#000000" stroke="none" font-family="Arial" font-size="13px" font-style="normal" font-weight="bold" text-decoration="none" x="705.5400390625" y="675.5">MikhailEduardovich</text></g></g><g transform="translate(-22,10) scale(1,1)"><rect fill="#C0C0C0" stroke="none" x="559" y="375" width="137.27978515625" height="177" opacity="0.2"/></g><g transform="translate(-22,10) scale(1,1)"><rect fill="#ffffff" stroke="none" x="552" y="368" width="137.27978515625" height="177"/></g><g transform="translate(-22,10) scale(1,1)"><path fill="none" stroke="#000000" d="M 552 368 L 689.27978515625 368 L 689.27978515625 545 L 552 545 L 552 368 Z Z" stroke-miterlimit="10"/></g><g transform="translate(-22,10) scale(1,1)"><path fill="none" stroke="#000000" d="M 552 393 L 689.27978515625 393" stroke-miterlimit="10"/></g><g transform="translate(-22,10) scale(1,1)"><path fill="none" stroke="#000000" d="M 552 536 L 689.27978515625 536" stroke-miterlimit="10"/></g><g transform="translate(-22,10) scale(1,1)"><g><path fill="none" stroke="none"/><text fill="#000000" stroke="none" font-family="Arial" font-size="13px" font-style="normal" font-weight="bold" text-decoration="none" x="602.2158203125" y="387.5">Player</text></g></g><g transform="translate(-22,10) scale(1,1)"><g><path fill="none" stroke="none"/><text fill="#000000" stroke="none" font-family="Arial" font-size="13px" font-style="normal" font-weight="normal" text-decoration="none" x="557" y="410.5">+health</text></g></g><g transform="translate(-22,10) scale(1,1)"><g><path fill="none" stroke="none"/><text fill="#000000" stroke="none" font-family="Arial" font-size="13px" font-style="normal" font-weight="normal" text-decoration="none" x="557" y="425.5">+coordinates</text></g></g><g transform="translate(-22,10) scale(1,1)"><g><path fill="none" stroke="none"/><text fill="#000000" stroke="none" font-family="Arial" font-size="13px" font-style="normal" font-weight="normal" text-decoration="none" x="557" y="440.5">+mana</text></g></g><g transform="translate(-22,10) scale(1,1)"><g><path fill="none" stroke="none"/><text fill="#000000" stroke="none" font-family="Arial" font-size="13px" font-style="normal" font-weight="normal" text-decoration="none" x="557" y="455.5">+currentExperience</text></g></g><g transform="translate(-22,10) scale(1,1)"><g><path fill="none" stroke="none"/><text fill="#000000" stroke="none" font-family="Arial" font-size="13px" font-style="normal" font-weight="normal" text-decoration="none" x="557" y="470.5">+nextLevelExperience</text></g></g><g transform="translate(-22,10) scale(1,1)"><g><path fill="none" stroke="none"/><text fill="#000000" stroke="none" font-family="Arial" font-size="13px" font-style="normal" font-weight="normal" text-decoration="none" x="557" y="485.5">+level</text></g></g><g transform="translate(-22,10) scale(1,1)"><g><path fill="none" stroke="none"/><text fill="#000000" stroke="none" font-family="Arial" font-size="13px" font-style="normal" font-weight="normal" text-decoration="none" x="557" y="500.5">+respect</text></g></g><g transform="translate(-22,10) scale(1,1)"><g><path fill="none" stroke="none"/><text fill="#000000" stroke="none" font-family="Arial" font-size="13px" font-style="normal" font-weight="normal" text-decoration="none" x="557" y="515.5">+knowledge</text></g></g><g transform="translate(-22,10) scale(1,1)"><g><path fill="none" stroke="none"/><text fill="#000000" stroke="none" font-family="Arial" font-size="13px" font-style="normal" font-weight="normal" text-decoration="none" x="557" y="530.5">+strength</text></g></g><g transform="translate(-22,10) scale(1,1)"><path fill="#C0C0C0" stroke="none" d="M 1028.20947265625 266.5 C 1028.20947265625 260.1487248 1033.35819745625 255 1039.70947265625 255 C 1046.06074785625 255 1051.20947265625 260.1487248 1051.20947265625 266.5 C 1051.20947265625 272.8512752 1046.06074785625 278 1039.70947265625 278 C 1033.35819745625 278 1028.20947265625 272.8512752 1028.20947265625 266.5 Z" opacity="0.2"/></g><g transform="translate(-22,10) scale(1,1)"><path fill="#ffffff" stroke="none" d="M 1021.20947265625 259.5 C 1021.20947265625 253.1487248 1026.35819745625 248 1032.70947265625 248 C 1039.06074785625 248 1044.20947265625 253.1487248 1044.20947265625 259.5 C 1044.20947265625 265.8512752 1039.06074785625 271 1032.70947265625 271 C 1026.35819745625 271 1021.20947265625 265.8512752 1021.20947265625 259.5 Z"/></g><g transform="translate(-22,10) scale(1,1)"><path fill="none" stroke="#000000" d="M 1021.20947265625 259.5 C 1021.20947265625 253.1487248 1026.35819745625 248 1032.70947265625 248 C 1039.06074785625 248 1044.20947265625 253.1487248 1044.20947265625 259.5 C 1044.20947265625 265.8512752 1039.06074785625 271 1032.70947265625 271 C 1026.35819745625 271 1021.20947265625 265.8512752 1021.20947265625 259.5 Z" stroke-miterlimit="10"/></g><g transform="translate(-22,10) scale(1,1)"><path fill="none" stroke="#000000" d="M 976 296 L 1089.4189453125 296" stroke-miterlimit="10"/></g><g transform="translate(-22,10) scale(1,1)"><g><path fill="none" stroke="none"/><text fill="#000000" stroke="none" font-family="Arial" font-size="13px" font-style="normal" font-weight="bold" text-decoration="none" x="1020.068115234375" y="290.5">Item</text></g></g><g transform="translate(-22,10) scale(1,1)"><g><path fill="none" stroke="none"/><text fill="#000000" stroke="none" font-family="Arial" font-size="13px" font-style="normal" font-weight="normal" text-decoration="none" x="981" y="313.5">+getCoordinates()</text></g></g><g transform="translate(-22,10) scale(1,1)"><g><path fill="none" stroke="none"/><text fill="#000000" stroke="none" font-family="Arial" font-size="13px" font-style="normal" font-weight="normal" text-decoration="none" x="981" y="328.5">+take()</text></g></g><g transform="translate(-22,10) scale(1,1)"><g><path fill="none" stroke="none"/><text fill="#000000" stroke="none" font-family="Arial" font-size="13px" font-style="normal" font-weight="normal" text-decoration="none" x="981" y="343.5">+getDrawable()</text></g></g><g transform="translate(-22,10) scale(1,1)"><rect fill="#C0C0C0" stroke="none" x="855" y="495" width="72.2353515625" height="72" opacity="0.2"/></g><g transform="translate(-22,10) scale(1,1)"><rect fill="#ffffff" stroke="none" x="848" y="488" width="72.2353515625" height="72"/></g><g transform="translate(-22,10) scale(1,1)"><path fill="none" stroke="#000000" d="M 848 488 L 920.2353515625 488 L 920.2353515625 560 L 848 560 L 848 488 Z Z" stroke-miterlimit="10"/></g><g transform="translate(-22,10) scale(1,1)"><path fill="none" stroke="#000000" d="M 848 513 L 920.2353515625 513" stroke-miterlimit="10"/></g><g transform="translate(-22,10) scale(1,1)"><path fill="none" stroke="#000000" d="M 848 551 L 920.2353515625 551" stroke-miterlimit="10"/></g><g transform="translate(-22,10) scale(1,1)"><g><path fill="none" stroke="none"/><text fill="#000000" stroke="none" font-family="Arial" font-size="13px" font-style="normal" font-weight="bold" text-decoration="none" x="867.858154296875" y="507.5">Mana</text></g></g><g transform="translate(-22,10) scale(1,1)"><g><path fill="none" stroke="none"/><text fill="#000000" stroke="none" font-family="Arial" font-size="13px" font-style="normal" font-weight="normal" text-decoration="none" x="853" y="530.5">+current</text></g></g><g transform="translate(-22,10) scale(1,1)"><g><path fill="none" stroke="none"/><text fill="#000000" stroke="none" font-family="Arial" font-size="13px" font-style="normal" font-weight="normal" text-decoration="none" x="853" y="545.5">+max</text></g></g><g transform="translate(-22,10) scale(1,1)"><rect fill="#C0C0C0" stroke="none" x="815" y="383" width="50.919921875" height="44" opacity="0.2"/></g><g transform="translate(-22,10) scale(1,1)"><rect fill="#ffffff" stroke="none" x="808" y="376" width="50.919921875" height="44"/></g><g transform="translate(-22,10) scale(1,1)"><path fill="none" stroke="#000000" d="M 808 376 L 858.919921875 376 L 858.919921875 420 L 808 420 L 808 376 Z Z" stroke-miterlimit="10"/></g><g transform="translate(-22,10) scale(1,1)"><path fill="none" stroke="#000000" d="M 808 401 L 858.919921875 401" stroke-miterlimit="10"/></g><g transform="translate(-22,10) scale(1,1)"><path fill="none" stroke="#000000" d="M 808 411 L 858.919921875 411" stroke-miterlimit="10"/></g><g transform="translate(-22,10) scale(1,1)"><g><path fill="none" stroke="none"/><text fill="#000000" stroke="none" font-family="Arial" font-size="13px" font-style="normal" font-weight="bold" text-decoration="none" x="817.5654296875" y="395.5">Pizza</text></g></g><g transform="translate(-22,10) scale(1,1)"><rect fill="#C0C0C0" stroke="none" x="887" y="383" width="60.28271484375" height="44" opacity="0.2"/></g><g transform="translate(-22,10) scale(1,1)"><rect fill="#ffffff" stroke="none" x="880" y="376" width="60.28271484375" height="44"/></g><g transform="translate(-22,10) scale(1,1)"><path fill="none" stroke="#000000" d="M 880 376 L 940.28271484375 376 L 940.28271484375 420 L 880 420 L 880 376 Z Z" stroke-miterlimit="10"/></g><g transform="translate(-22,10) scale(1,1)"><path fill="none" stroke="#000000" d="M 880 401 L 940.28271484375 401" stroke-miterlimit="10"/></g><g transform="translate(-22,10) scale(1,1)"><path fill="none" stroke="#000000" d="M 880 411 L 940.28271484375 411" stroke-miterlimit="10"/></g><g transform="translate(-22,10) scale(1,1)"><g><path fill="none" stroke="none"/><text fill="#000000" stroke="none" font-family="Arial" font-size="13px" font-style="normal" font-weight="bold" text-decoration="none" x="886.299560546875" y="395.5">Diploma</text></g></g><g transform="translate(-22,10) scale(1,1)"><rect fill="#C0C0C0" stroke="none" x="959" y="383" width="50.919921875" height="44" opacity="0.2"/></g><g transform="translate(-22,10) scale(1,1)"><rect fill="#ffffff" stroke="none" x="952" y="376" width="50.919921875" height="44"/></g><g transform="translate(-22,10) scale(1,1)"><path fill="none" stroke="#000000" d="M 952 376 L 1002.919921875 376 L 1002.919921875 420 L 952 420 L 952 376 Z Z" stroke-miterlimit="10"/></g><g transform="translate(-22,10) scale(1,1)"><path fill="none" stroke="#000000" d="M 952 401 L 1002.919921875 401" stroke-miterlimit="10"/></g><g transform="translate(-22,10) scale(1,1)"><path fill="none" stroke="#000000" d="M 952 411 L 1002.919921875 411" stroke-miterlimit="10"/></g><g transform="translate(-22,10) scale(1,1)"><g><path fill="none" stroke="none"/><text fill="#000000" stroke="none" font-family="Arial" font-size="13px" font-style="normal" font-weight="bold" text-decoration="none" x="958.426513671875" y="395.5">Coffee</text></g></g><g transform="translate(-22,10) scale(1,1)"><rect fill="#C0C0C0" stroke="none" x="1031" y="383" width="50.919921875" height="44" opacity="0.2"/></g><g transform="translate(-22,10) scale(1,1)"><rect fill="#ffffff" stroke="none" x="1024" y="376" width="50.919921875" height="44"/></g><g transform="translate(-22,10) scale(1,1)"><path fill="none" stroke="#000000" d="M 1024 376 L 1074.919921875 376 L 1074.919921875 420 L 1024 420 L 1024 376 Z Z" stroke-miterlimit="10"/></g><g transform="translate(-22,10) scale(1,1)"><path fill="none" stroke="#000000" d="M 1024 401 L 1074.919921875 401" stroke-miterlimit="10"/></g><g transform="translate(-22,10) scale(1,1)"><path fill="none" stroke="#000000" d="M 1024 411 L 1074.919921875 411" stroke-miterlimit="10"/></g><g transform="translate(-22,10) scale(1,1)"><g><path fill="none" stroke="none"/><text fill="#000000" stroke="none" font-family="Arial" font-size="13px" font-style="normal" font-weight="bold" text-decoration="none" x="1032.838623046875" y="395.5">Boots</text></g></g><g transform="translate(-22,10) scale(1,1)"><rect fill="#C0C0C0" stroke="none" x="1095" y="383" width="50.919921875" height="44" opacity="0.2"/></g><g transform="translate(-22,10) scale(1,1)"><rect fill="#ffffff" stroke="none" x="1088" y="376" width="50.919921875" height="44"/></g><g transform="translate(-22,10) scale(1,1)"><path fill="none" stroke="#000000" d="M 1088 376 L 1138.919921875 376 L 1138.919921875 420 L 1088 420 L 1088 376 Z Z" stroke-miterlimit="10"/></g><g transform="translate(-22,10) scale(1,1)"><path fill="none" stroke="#000000" d="M 1088 401 L 1138.919921875 401" stroke-miterlimit="10"/></g><g transform="translate(-22,10) scale(1,1)"><path fill="none" stroke="#000000" d="M 1088 411 L 1138.919921875 411" stroke-miterlimit="10"/></g><g transform="translate(-22,10) scale(1,1)"><g><path fill="none" stroke="none"/><text fill="#000000" stroke="none" font-family="Arial" font-size="13px" font-style="normal" font-weight="bold" text-decoration="none" x="1100.818603515625" y="395.5">DFA</text></g></g><g transform="translate(-22,10) scale(1,1)"><rect fill="#C0C0C0" stroke="none" x="775" y="199" width="96" height="44" opacity="0.2"/></g><g transform="translate(-22,10) scale(1,1)"><rect fill="#ffffff" stroke="none" x="768" y="192" width="96" height="44"/></g><g transform="translate(-22,10) scale(1,1)"><path fill="none" stroke="#000000" d="M 768 192 L 864 192 L 864 236 L 768 236 L 768 192 Z Z" stroke-miterlimit="10"/></g><g transform="translate(-22,10) scale(1,1)"><path fill="none" stroke="#000000" d="M 768 217 L 864 217" stroke-miterlimit="10"/></g><g transform="translate(-22,10) scale(1,1)"><path fill="none" stroke="#000000" d="M 768 227 L 864 227" stroke-miterlimit="10"/></g><g transform="translate(-22,10) scale(1,1)"><g><path fill="none" stroke="none"/><text fill="#000000" stroke="none" font-family="Arial" font-size="13px" font-style="normal" font-weight="bold" text-decoration="none" x="783.48095703125" y="211.5">BlueCarpet</text></g></g><g transform="translate(-22,10) scale(1,1)"><rect fill="#C0C0C0" stroke="none" x="935" y="199" width="40" height="44" opacity="0.2"/></g><g transform="translate(-22,10) scale(1,1)"><rect fill="#ffffff" stroke="none" x="928" y="192" width="40" height="44"/></g><g transform="translate(-22,10) scale(1,1)"><path fill="none" stroke="#000000" d="M 928 192 L 968 192 L 968 236 L 928 236 L 928 192 Z Z" stroke-miterlimit="10"/></g><g transform="translate(-22,10) scale(1,1)"><path fill="none" stroke="#000000" d="M 928 217 L 968 217" stroke-miterlimit="10"/></g><g transform="translate(-22,10) scale(1,1)"><path fill="none" stroke="#000000" d="M 928 227 L 968 227" stroke-miterlimit="10"/></g><g transform="translate(-22,10) scale(1,1)"><g><path fill="none" stroke="none"/><text fill="#000000" stroke="none" font-family="Arial" font-size="13px" font-style="normal" font-weight="bold" text-decoration="none" x="936.802734375" y="211.5">Hall</text></g></g><g transform="translate(-22,10) scale(1,1)"><path fill="#C0C0C0" stroke="none" d="M 1086.11767578125 25 C 1086.11767578125 15.0588736 1094.17654938125 7 1104.11767578125 7 C 1114.05880218125 7 1122.11767578125 15.0588736 1122.11767578125 25 C 1122.11767578125 34.9411264 1114.05880218125 43 1104.11767578125 43 C 1094.17654938125 43 1086.11767578125 34.9411264 1086.11767578125 25 Z" opacity="0.2"/></g><g transform="translate(-22,10) scale(1,1)"><path fill="#ffffff" stroke="none" d="M 1079.11767578125 18 C 1079.11767578125 8.0588736 1087.17654938125 0 1097.11767578125 0 C 1107.05880218125 0 1115.11767578125 8.0588736 1115.11767578125 18 C 1115.11767578125 27.9411264 1107.05880218125 36 1097.11767578125 36 C 1087.17654938125 36 1079.11767578125 27.9411264 1079.11767578125 18 Z"/></g><g transform="translate(-22,10) scale(1,1)"><path fill="none" stroke="#000000" d="M 1079.11767578125 18 C 1079.11767578125 8.0588736 1087.17654938125 0 1097.11767578125 0 C 1107.05880218125 0 1115.11767578125 8.0588736 1115.11767578125 18 C 1115.11767578125 27.9411264 1107.05880218125 36 1097.11767578125 36 C 1087.17654938125 36 1079.11767578125 27.9411264 1079.11767578125 18 Z" stroke-miterlimit="10"/></g><g transform="translate(-22,10) scale(1,1)"><path fill="none" stroke="#000000" d="M 1048 61 L 1146.2353515625 61" stroke-miterlimit="10"/></g><g transform="translate(-22,10) scale(1,1)"><path fill="none" stroke="#000000" d="M 1048 71 L 1146.2353515625 71" stroke-miterlimit="10"/></g><g transform="translate(-22,10) scale(1,1)"><g><path fill="none" stroke="none"/><text fill="#000000" stroke="none" font-family="Arial" font-size="13px" font-style="normal" font-weight="bold" text-decoration="none" x="1077.24951171875" y="55.5">Terrain</text></g></g><g transform="translate(-22,10) scale(1,1)"><g><path fill="none" stroke="none"/><text fill="#000000" stroke="none" font-family="Arial" font-size="13px" font-style="normal" font-weight="normal" text-decoration="none" x="1053" y="88.5">+getDrawable()</text></g></g><g transform="translate(-22,10) scale(1,1)"><g><path fill="none" stroke="none"/><text fill="#000000" stroke="none" font-family="Arial" font-size="13px" font-style="normal" font-weight="normal" text-decoration="none" x="1053" y="103.5">+isPassable()</text></g></g><g transform="translate(-22,10) scale(1,1)"><rect fill="#C0C0C0" stroke="none" x="887" y="199" width="42.22998046875" height="44" opacity="0.2"/></g><g transform="translate(-22,10) scale(1,1)"><rect fill="#ffffff" stroke="none" x="880" y="192" width="42.22998046875" height="44"/></g><g transform="translate(-22,10) scale(1,1)"><path fill="none" stroke="#000000" d="M 880 192 L 922.22998046875 192 L 922.22998046875 236 L 880 236 L 880 192 Z Z" stroke-miterlimit="10"/></g><g transform="translate(-22,10) scale(1,1)"><path fill="none" stroke="#000000" d="M 880 217 L 922.22998046875 217" stroke-miterlimit="10"/></g><g transform="translate(-22,10) scale(1,1)"><path fill="none" stroke="#000000" d="M 880 227 L 922.22998046875 227" stroke-miterlimit="10"/></g><g transform="translate(-22,10) scale(1,1)"><g><path fill="none" stroke="none"/><text fill="#000000" stroke="none" font-family="Arial" font-size="13px" font-style="normal" font-weight="bold" text-decoration="none" x="885.582275390625" y="211.5">Chair</text></g></g><g transform="translate(-22,10) scale(1,1)"><rect fill="#C0C0C0" stroke="none" x="1047" y="199" width="84.12451171875" height="44" opacity="0.2"/></g><g transform="translate(-22,10) scale(1,1)"><rect fill="#ffffff" stroke="none" x="1040" y="192" width="84.12451171875" height="44"/></g><g transform="translate(-22,10) scale(1,1)"><path fill="none" stroke="#000000" d="M 1040 192 L 1124.12451171875 192 L 1124.12451171875 236 L 1040 236 L 1040 192 Z Z" stroke-miterlimit="10"/></g><g transform="translate(-22,10) scale(1,1)"><path fill="none" stroke="#000000" d="M 1040 217 L 1124.12451171875 217" stroke-miterlimit="10"/></g><g transform="translate(-22,10) scale(1,1)"><path fill="none" stroke="#000000" d="M 1040 227 L 1124.12451171875 227" stroke-miterlimit="10"/></g><g transform="translate(-22,10) scale(1,1)"><g><path fill="none" stroke="none"/><text fill="#000000" stroke="none" font-family="Arial" font-size="13px" font-style="normal" font-weight="bold" text-decoration="none" x="1047.3818359375" y="211.5">FloorSocket</text></g></g><g transform="translate(-22,10) scale(1,1)"><rect fill="#C0C0C0" stroke="none" x="983" y="199" width="50.919921875" height="44" opacity="0.2"/></g><g transform="translate(-22,10) scale(1,1)"><rect fill="#ffffff" stroke="none" x="976" y="192" width="50.919921875" height="44"/></g><g transform="translate(-22,10) scale(1,1)"><path fill="none" stroke="#000000" d="M 976 192 L 1026.919921875 192 L 1026.919921875 236 L 976 236 L 976 192 Z Z" stroke-miterlimit="10"/></g><g transform="translate(-22,10) scale(1,1)"><path fill="none" stroke="#000000" d="M 976 217 L 1026.919921875 217" stroke-miterlimit="10"/></g><g transform="translate(-22,10) scale(1,1)"><path fill="none" stroke="#000000" d="M 976 227 L 1026.919921875 227" stroke-miterlimit="10"/></g><g transform="translate(-22,10) scale(1,1)"><g><path fill="none" stroke="none"/><text fill="#000000" stroke="none" font-family="Arial" font-size="13px" font-style="normal" font-weight="bold" text-decoration="none" x="989.06298828125" y="211.5">Wall</text></g></g><g transform="translate(-22,10) scale(1,1)"><rect fill="#C0C0C0" stroke="none" x="687" y="31" width="113.4189453125" height="87" opacity="0.2"/></g><g transform="translate(-22,10) scale(1,1)"><rect fill="#ffffff" stroke="none" x="680" y="24" width="113.4189453125" height="87"/></g><g transform="translate(-22,10) scale(1,1)"><path fill="none" stroke="#000000" d="M 680 24 L 793.4189453125 24 L 793.4189453125 111 L 680 111 L 680 24 Z Z" stroke-miterlimit="10"/></g><g transform="translate(-22,10) scale(1,1)"><path fill="none" stroke="#000000" d="M 680 49 L 793.4189453125 49" stroke-miterlimit="10"/></g><g transform="translate(-22,10) scale(1,1)"><path fill="none" stroke="#000000" d="M 680 87 L 793.4189453125 87" stroke-miterlimit="10"/></g><g transform="translate(-22,10) scale(1,1)"><g><path fill="none" stroke="none"/><text fill="#000000" stroke="none" font-family="Arial" font-size="13px" font-style="normal" font-weight="bold" text-decoration="none" x="726.47705078125" y="43.5">Tile</text></g></g><g transform="translate(-22,10) scale(1,1)"><g><path fill="none" stroke="none"/><text fill="#000000" stroke="none" font-family="Arial" font-size="13px" font-style="normal" font-weight="normal" text-decoration="none" x="685" y="66.5">+contents</text></g></g><g transform="translate(-22,10) scale(1,1)"><g><path fill="none" stroke="none"/><text fill="#000000" stroke="none" font-family="Arial" font-size="13px" font-style="normal" font-weight="normal" text-decoration="none" x="685" y="81.5">+terrain</text></g></g><g transform="translate(-22,10) scale(1,1)"><g><path fill="none" stroke="none"/><text fill="#000000" stroke="none" font-family="Arial" font-size="13px" font-style="normal" font-weight="normal" text-decoration="none" x="685" y="104.5">+getCoordinates()</text></g></g><g transform="translate(-22,10) scale(1,1)"><path fill="none" stroke="#000000" d="M 695 662 L 352 577" stroke-miterlimit="10"/></g><g transform="translate(-22,10) scale(1,1)"><path fill="#FFFFFF" stroke="none" d="M 373.7536883036519 573.7171589761979 L 352 577 L 369.7034996648186 590.0608613658429"/></g><g transform="translate(-22,10) scale(1,1)"><path fill="none" stroke="#000000" d="M 373.7536883036519 573.7171589761979 L 352 577 L 369.7034996648186 590.0608613658429 L 373.7536883036519 573.7171589761979" stroke-miterlimit="10"/></g><g transform="translate(-22,10) scale(1,1)"><path fill="none" stroke="#000000" d="M 511 655 L 352 588" stroke-miterlimit="10"/></g><g transform="translate(-22,10) scale(1,1)"><path fill="#FFFFFF" stroke="none" d="M 373.99959008718395 588.13429816037 L 352 588 L 367.4610961940736 603.6510224738706"/></g><g transform="translate(-22,10) scale(1,1)"><path fill="none" stroke="#000000" d="M 373.99959008718395 588.13429816037 L 352 588 L 367.4610961940736 603.6510224738706 L 373.99959008718395 588.13429816037" stroke-miterlimit="10"/></g><g transform="translate(-22,10) scale(1,1)"><path fill="none" stroke="#000000" d="M 493 719 L 352 609" stroke-miterlimit="10"/></g><g transform="translate(-22,10) scale(1,1)"><path fill="#FFFFFF" stroke="none" d="M 373.2040426345479 614.8641773465914 L 352 609 L 362.8469227676021 628.1401219033128"/></g><g transform="translate(-22,10) scale(1,1)"><path fill="none" stroke="#000000" d="M 373.2040426345479 614.8641773465914 L 352 609 L 362.8469227676021 628.1401219033128 L 373.2040426345479 614.8641773465914" stroke-miterlimit="10"/></g><g transform="translate(-22,10) scale(1,1)"><path fill="none" stroke="#000000" d="M 360 671 L 329 621" stroke-miterlimit="10"/></g><g transform="translate(-22,10) scale(1,1)"><path fill="#FFFFFF" stroke="none" d="M 346.86559399174877 633.8382456481402 L 329 621 L 332.5548721051526 642.7108932178298"/></g><g transform="translate(-22,10) scale(1,1)"><path fill="none" stroke="#000000" d="M 346.86559399174877 633.8382456481402 L 329 621 L 332.5548721051526 642.7108932178298 L 346.86559399174877 633.8382456481402" stroke-miterlimit="10"/></g><g transform="translate(-22,10) scale(1,1)"><path fill="none" stroke="#000000" d="M 316 727 L 300 621" stroke-miterlimit="10"/></g><g transform="translate(-22,10) scale(1,1)"><path fill="#FFFFFF" stroke="none" d="M 311.35834779262984 639.8411235180299 L 300 621 L 294.7088785424715 642.3542509520162"/></g><g transform="translate(-22,10) scale(1,1)"><path fill="none" stroke="#000000" d="M 311.35834779262984 639.8411235180299 L 300 621 L 294.7088785424715 642.3542509520162 L 311.35834779262984 639.8411235180299" stroke-miterlimit="10"/></g><g transform="translate(-22,10) scale(1,1)"><path fill="none" stroke="#000000" d="M 261 655 L 272 621" stroke-miterlimit="10"/></g><g transform="translate(-22,10) scale(1,1)"><path fill="#FFFFFF" stroke="none" d="M 273.75369023893717 642.9299924885044 L 272 621 L 257.7331998600617 637.7468926600446"/></g><g transform="translate(-22,10) scale(1,1)"><path fill="none" stroke="#000000" d="M 273.75369023893717 642.9299924885044 L 272 621 L 257.7331998600617 637.7468926600446 L 273.75369023893717 642.9299924885044" stroke-miterlimit="10"/></g><g transform="translate(-22,10) scale(1,1)"><path fill="none" stroke="#000000" d="M 156 711 L 237 621" stroke-miterlimit="10"/></g><g transform="translate(-22,10) scale(1,1)"><path fill="#FFFFFF" stroke="none" d="M 229.66087769574685 641.7397512955969 L 237 621 L 217.1452380694661 630.4756756319442"/></g><g transform="translate(-22,10) scale(1,1)"><path fill="none" stroke="#000000" d="M 229.66087769574685 641.7397512955969 L 237 621 L 217.1452380694661 630.4756756319442 L 229.66087769574685 641.7397512955969" stroke-miterlimit="10"/></g><g transform="translate(-22,10) scale(1,1)"><path fill="none" stroke="#000000" d="M 164 658 L 231 607" stroke-miterlimit="10"/></g><g transform="translate(-22,10) scale(1,1)"><path fill="#FFFFFF" stroke="none" d="M 219.9263189173862 626.009828702031 L 231 607 L 209.72774622938582 612.6117037981874"/></g><g transform="translate(-22,10) scale(1,1)"><path fill="none" stroke="#000000" d="M 219.9263189173862 626.009828702031 L 231 607 L 209.72774622938582 612.6117037981874 L 219.9263189173862 626.009828702031" stroke-miterlimit="10"/></g><g transform="translate(-22,10) scale(1,1)"><path fill="none" stroke="#000000" d="M 87 664 L 231 592" stroke-miterlimit="10"/></g><g transform="translate(-22,10) scale(1,1)"><path fill="#FFFFFF" stroke="none" d="M 216.58556169007716 608.6199870099056 L 231 592 L 209.05534740612188 593.5595584419949"/></g><g transform="translate(-22,10) scale(1,1)"><path fill="none" stroke="#000000" d="M 216.58556169007716 608.6199870099056 L 231 592 L 209.05534740612188 593.5595584419949 L 216.58556169007716 608.6199870099056" stroke-miterlimit="10"/></g><g transform="translate(-22,10) scale(1,1)"><path fill="none" stroke="#000000" d="M 1094 375 L 1074 350" stroke-miterlimit="10"/></g><g transform="translate(-22,10) scale(1,1)"><path fill="#FFFFFF" stroke="none" d="M 1093.2713075438664 360.612101844108 L 1074 350 L 1080.1229830699883 371.1307614232104"/></g><g transform="translate(-22,10) scale(1,1)"><path fill="none" stroke="#000000" d="M 1093.2713075438664 360.612101844108 L 1074 350 L 1080.1229830699883 371.1307614232104 L 1093.2713075438664 360.612101844108" stroke-miterlimit="10"/></g><g transform="translate(-22,10) scale(1,1)"><path fill="none" stroke="#000000" d="M 1045 375 L 1041 350" stroke-miterlimit="10"/></g><g transform="translate(-22,10) scale(1,1)"><path fill="#FFFFFF" stroke="none" d="M 1052.5245099328106 368.739948527372 L 1041 350 L 1035.8979144405505 371.4002038061336"/></g><g transform="translate(-22,10) scale(1,1)"><path fill="none" stroke="#000000" d="M 1052.5245099328106 368.739948527372 L 1041 350 L 1035.8979144405505 371.4002038061336 L 1052.5245099328106 368.739948527372" stroke-miterlimit="10"/></g><g transform="translate(-22,10) scale(1,1)"><path fill="none" stroke="#000000" d="M 990 375 L 1003 350" stroke-miterlimit="10"/></g><g transform="translate(-22,10) scale(1,1)"><path fill="#FFFFFF" stroke="none" d="M 1001.0923540421302 371.91713683169917 L 1003 350 L 986.1533345291992 364.14884668497507"/></g><g transform="translate(-22,10) scale(1,1)"><path fill="none" stroke="#000000" d="M 1001.0923540421302 371.91713683169917 L 1003 350 L 986.1533345291992 364.14884668497507 L 1001.0923540421302 371.91713683169917" stroke-miterlimit="10"/></g><g transform="translate(-22,10) scale(1,1)"><path fill="none" stroke="#000000" d="M 938 375 L 975 345" stroke-miterlimit="10"/></g><g transform="translate(-22,10) scale(1,1)"><path fill="#FFFFFF" stroke="none" d="M 964.514492817442 364.340479288904 L 975 345 L 953.909842710451 351.26141082361505"/></g><g transform="translate(-22,10) scale(1,1)"><path fill="none" stroke="#000000" d="M 964.514492817442 364.340479288904 L 975 345 L 953.909842710451 351.26141082361505 L 964.514492817442 364.340479288904" stroke-miterlimit="10"/></g><g transform="translate(-22,10) scale(1,1)"><path fill="none" stroke="#000000" d="M 860 384 L 975 327" stroke-miterlimit="10"/></g><g transform="translate(-22,10) scale(1,1)"><path fill="#FFFFFF" stroke="none" d="M 960.5277401775677 343.56966190457763 L 975 327 L 953.0500466457693 328.48308723515976"/></g><g transform="translate(-22,10) scale(1,1)"><path fill="none" stroke="#000000" d="M 960.5277401775677 343.56966190457763 L 975 327 L 953.0500466457693 328.48308723515976 L 960.5277401775677 343.56966190457763" stroke-miterlimit="10"/></g><g transform="translate(-22,10) scale(1,1)"><path fill="none" stroke="#000000" d="M 815 863 L 835 822" stroke-miterlimit="10"/></g><g transform="translate(-22,10) scale(1,1)"><path fill="#FFFFFF" stroke="none" d="M 833.6556498167051 843.9588870980447 L 835 822 L 818.5221228947656 836.57667884344"/></g><g transform="translate(-22,10) scale(1,1)"><path fill="none" stroke="#000000" d="M 833.6556498167051 843.9588870980447 L 835 822 L 818.5221228947656 836.57667884344 L 833.6556498167051 843.9588870980447" stroke-miterlimit="10"/></g><g transform="translate(-22,10) scale(1,1)"><path fill="none" stroke="#000000" d="M 935 863 L 902 822" stroke-miterlimit="10"/></g><g transform="translate(-22,10) scale(1,1)"><path fill="#FFFFFF" stroke="none" d="M 921.3027124781923 832.5548704863792 L 902 822 L 908.1856583931595 843.1124993840884"/></g><g transform="translate(-22,10) scale(1,1)"><path fill="none" stroke="#000000" d="M 921.3027124781923 832.5548704863792 L 902 822 L 908.1856583931595 843.1124993840884 L 921.3027124781923 832.5548704863792" stroke-miterlimit="10"/></g><g transform="translate(-22,10) scale(1,1)"><path fill="none" stroke="#000000" d="M 856 191 L 1047 82" stroke-miterlimit="10"/></g><g transform="translate(-22,10) scale(1,1)"><path fill="#FFFFFF" stroke="none" d="M 1033.519857511255 99.38636702946111 L 1047 82 L 1025.1740818081173 84.76211786157769"/></g><g transform="translate(-22,10) scale(1,1)"><path fill="none" stroke="#000000" d="M 1033.519857511255 99.38636702946111 L 1047 82 L 1025.1740818081173 84.76211786157769 L 1033.519857511255 99.38636702946111" stroke-miterlimit="10"/></g><g transform="translate(-22,10) scale(1,1)"><path fill="none" stroke="#000000" d="M 923 196 L 1047 95" stroke-miterlimit="10"/></g><g transform="translate(-22,10) scale(1,1)"><path fill="#FFFFFF" stroke="none" d="M 1036.5576781968145 114.36383007978321 L 1047 95 L 1025.9238678824765 101.30845900079416"/></g><g transform="translate(-22,10) scale(1,1)"><path fill="none" stroke="#000000" d="M 1036.5576781968145 114.36383007978321 L 1047 95 L 1025.9238678824765 101.30845900079416 L 1036.5576781968145 114.36383007978321" stroke-miterlimit="10"/></g><g transform="translate(-22,10) scale(1,1)"><path fill="none" stroke="#000000" d="M 969 191 L 1047 108" stroke-miterlimit="10"/></g><g transform="translate(-22,10) scale(1,1)"><path fill="#FFFFFF" stroke="none" d="M 1039.2159393666034 128.57688995100102 L 1047 108 L 1026.945779520876 117.04589636104019"/></g><g transform="translate(-22,10) scale(1,1)"><path fill="none" stroke="#000000" d="M 1039.2159393666034 128.57688995100102 L 1047 108 L 1026.945779520876 117.04589636104019 L 1039.2159393666034 128.57688995100102" stroke-miterlimit="10"/></g><g transform="translate(-22,10) scale(1,1)"><path fill="none" stroke="#000000" d="M 1015 191 L 1063 110" stroke-miterlimit="10"/></g><g transform="translate(-22,10) scale(1,1)"><path fill="#FFFFFF" stroke="none" d="M 1059.8809131038142 131.77777070625098 L 1063 110 L 1045.3952631590812 123.19368185011282"/></g><g transform="translate(-22,10) scale(1,1)"><path fill="none" stroke="#000000" d="M 1059.8809131038142 131.77777070625098 L 1063 110 L 1045.3952631590812 123.19368185011282 L 1059.8809131038142 131.77777070625098" stroke-miterlimit="10"/></g><g transform="translate(-22,10) scale(1,1)"><path fill="none" stroke="#000000" d="M 1084 191 L 1092 110" stroke-miterlimit="10"/></g><g transform="translate(-22,10) scale(1,1)"><path fill="#FFFFFF" stroke="none" d="M 1098.3805492011754 131.05441977095023 L 1092 110 L 1081.6240066138585 129.39945260183254"/></g><g transform="translate(-22,10) scale(1,1)"><path fill="none" stroke="#000000" d="M 1098.3805492011754 131.05441977095023 L 1092 110 L 1081.6240066138585 129.39945260183254 L 1098.3805492011754 131.05441977095023" stroke-miterlimit="10"/></g><g transform="translate(-22,10) scale(1,1)"><path fill="none" stroke="#000000" d="M 679 71 L 600 76" stroke-miterlimit="10"/></g><g transform="translate(-22,10) scale(1,1)"><path fill="#000000" stroke="none" d="M 609.8764879923135 71.15696531731525 L 600 76 L 610.4082742993204 79.55918896802437 L 621.9560684892498 74.6103754120728"/></g><g transform="translate(-22,10) scale(1,1)"><path fill="none" stroke="#000000" d="M 609.8764879923135 71.15696531731525 L 600 76 L 610.4082742993204 79.55918896802437 L 621.9560684892498 74.6103754120728 L 609.8764879923135 71.15696531731525" stroke-miterlimit="10"/></g><g transform="translate(-22,10) scale(1,1)"><path fill="none" stroke="#000000" d="M 415 85 L 368 86" stroke-miterlimit="10"/></g><g transform="translate(-22,10) scale(1,1)"><path fill="#000000" stroke="none" d="M 378.0708314078774 81.5752565323953 L 368 86 L 378.2499192916507 89.9923870697424 L 389.99502206125544 85.53202080720733"/></g><g transform="translate(-22,10) scale(1,1)"><path fill="none" stroke="#000000" d="M 378.0708314078774 81.5752565323953 L 368 86 L 378.2499192916507 89.9923870697424 L 389.99502206125544 85.53202080720733 L 378.0708314078774 81.5752565323953" stroke-miterlimit="10"/></g><g transform="translate(-22,10) scale(1,1)"><path fill="none" stroke="#000000" d="M 630 183 L 695 112" stroke-miterlimit="10"/></g><g transform="translate(-22,10) scale(1,1)"><path fill="#FFFFFF" stroke="none" d="M 691.2424905147362 122.33833267350944 L 695 112 L 685.0327344229962 116.65334470219818 L 680.1444105218341 128.22687466076587"/></g><g transform="translate(-22,10) scale(1,1)"><path fill="none" stroke="#000000" d="M 691.2424905147362 122.33833267350944 L 695 112 L 685.0327344229962 116.65334470219818 L 680.1444105218341 128.22687466076587 L 691.2424905147362 122.33833267350944" stroke-miterlimit="10"/></g><g transform="translate(-22,10) scale(1,1)"><path fill="none" stroke="#000000" d="M 600 257 L 611 367" stroke-miterlimit="10"/></g><g transform="translate(-22,10) scale(1,1)"><path fill="#FFFFFF" stroke="none" d="M 605.80014933638 357.30662323666047 L 611 367 L 614.1774027765504 356.46889789264344 L 608.810918181538 345.1091818153802"/></g><g transform="translate(-22,10) scale(1,1)"><path fill="none" stroke="#000000" d="M 605.80014933638 357.30662323666047 L 611 367 L 614.1774027765504 356.46889789264344 L 608.810918181538 345.1091818153802 L 605.80014933638 357.30662323666047" stroke-miterlimit="10"/></g><g transform="translate(-22,10) scale(1,1)"><path fill="none" stroke="#000000" d="M 847 601 L 352 566" stroke-miterlimit="10"/></g><g transform="translate(-22,10) scale(1,1)"><path fill="#FFFFFF" stroke="none" d="M 362.43426704036375 562.5177491000247 L 352 566 L 361.84046420611793 570.9158177557871 L 373.9452109642163 567.5516815833284"/></g><g transform="translate(-22,10) scale(1,1)"><path fill="none" stroke="#000000" d="M 362.43426704036375 562.5177491000247 L 352 566 L 361.84046420611793 570.9158177557871 L 373.9452109642163 567.5516815833284 L 362.43426704036375 562.5177491000247" stroke-miterlimit="10"/></g><g transform="translate(-22,10) scale(1,1)"><path fill="none" stroke="#000000" d="M 847 583 L 690 495" stroke-miterlimit="10"/></g><g transform="translate(-22,10) scale(1,1)"><path fill="#FFFFFF" stroke="none" d="M 700.9232773539409 496.296923995029 L 690 495 L 696.8068597381845 503.64098724132157 L 709.1909620986314 505.75671760942396"/></g><g transform="translate(-22,10) scale(1,1)"><path fill="none" stroke="#000000" d="M 700.9232773539409 496.296923995029 L 690 495 L 696.8068597381845 503.64098724132157 L 709.1909620986314 505.75671760942396 L 700.9232773539409 496.296923995029" stroke-miterlimit="10"/></g><g transform="translate(-22,10) scale(1,1)"><path fill="none" stroke="#000000" d="M 847 514 L 690 474" stroke-miterlimit="10"/></g><g transform="translate(-22,10) scale(1,1)"><path fill="#FFFFFF" stroke="none" d="M 700.8873620743369 472.4298576299296 L 690 474 L 698.8087858693019 480.5882692346918 L 711.3189569099998 479.4315813783439"/></g><g transform="translate(-22,10) scale(1,1)"><path fill="none" stroke="#000000" d="M 700.8873620743369 472.4298576299296 L 690 474 L 698.8087858693019 480.5882692346918 L 711.3189569099998 479.4315813783439 L 700.8873620743369 472.4298576299296" stroke-miterlimit="10"/></g><g transform="translate(-22,10) scale(1,1)"><path fill="none" stroke="#000000" d="M 643 228 L 975 288" stroke-miterlimit="10"/></g><g transform="translate(-22,10) scale(1,1)"><path fill="#FFFFFF" stroke="none" d="M 964.2506987351301 290.33506366445675 L 975 288 L 965.7479568309536 282.0502355342331 L 953.3507007893674 284.0874760462712"/></g><g transform="translate(-22,10) scale(1,1)"><path fill="none" stroke="#000000" d="M 964.2506987351301 290.33506366445675 L 975 288 L 965.7479568309536 282.0502355342331 L 953.3507007893674 284.0874760462712 L 964.2506987351301 290.33506366445675" stroke-miterlimit="10"/></g><g transform="translate(-22,10) scale(1,1)"><path fill="none" stroke="#000000" d="M 1047 56 L 794 65" stroke-miterlimit="10"/></g><g transform="translate(-22,10) scale(1,1)"><path fill="#000000" stroke="none" d="M 804.0065997573944 60.43185362588778 L 794 65 L 804.3059018236607 68.84556726648574 L 815.986093279761 64.21788600981087"/></g><g transform="translate(-22,10) scale(1,1)"><path fill="none" stroke="#000000" d="M 804.0065997573944 60.43185362588778 L 794 65 L 804.3059018236607 68.84556726648574 L 815.986093279761 64.21788600981087 L 804.0065997573944 60.43185362588778" stroke-miterlimit="10"/></g><g transform="translate(-22,10) scale(1,1)"><path fill="none" stroke="#000000" d="M 894 641 L 955 863" stroke-miterlimit="10"/></g><g transform="translate(-22,10) scale(1,1)"><path fill="#FFFFFF" stroke="none" d="M 948.248279484579 854.3158610051632 L 955 863 L 956.3664262108852 852.085199066854 L 949.1709994484913 841.7862602879522"/></g><g transform="translate(-22,10) scale(1,1)"><path fill="none" stroke="#000000" d="M 948.248279484579 854.3158610051632 L 955 863 L 956.3664262108852 852.085199066854 L 949.1709994484913 841.7862602879522 L 948.248279484579 854.3158610051632" stroke-miterlimit="10"/></g><g transform="translate(-22,10) scale(1,1)"><path fill="none" stroke="#000000" d="M 551 382 L 334 148" stroke-miterlimit="10"/></g><g transform="translate(-22,10) scale(1,1)"><path fill="#000000" stroke="none" d="M 343.99690176808116 152.58933056548946 L 334 148 L 337.82373026710167 158.31402379503027 L 348.9593443179931 164.1312745180202"/></g><g transform="translate(-22,10) scale(1,1)"><path fill="none" stroke="#000000" d="M 343.99690176808116 152.58933056548946 L 334 148 L 337.82373026710167 158.31402379503027 L 348.9593443179931 164.1312745180202 L 343.99690176808116 152.58933056548946" stroke-miterlimit="10"/></g></g></svg>