<svg version="1.1" xmlns="http://www.w3.org/2000/svg" xmlns:xlink="http://www.w3.org/1999/xlink" width="564" height="796"><defs/><g><g transform="translate(2,-6) scale(1,1)"><path fill="none" stroke="#000000" d="M 8 16 L 552 16 L 552 792 L 8 792 L 8 16" stroke-miterlimit="10"/></g><g transform="translate(2,-6) scale(1,1)"><path fill="#ffffff" stroke="none" d="M 8 16 L 8 38 L 176.470703125 38 L 187.470703125 27 L 187.470703125 16 L 8 16"/></g><g transform="translate(2,-6) scale(1,1)"><path fill="none" stroke="#000000" d="M 8 16 L 8 38 L 176.470703125 38 L 187.470703125 27 L 187.470703125 16 L 8 16 L 8 16" stroke-miterlimit="10"/></g><g transform="translate(2,-6) scale(1,1)"><g><path fill="none" stroke="none"/><text fill="#000000" stroke="none" font-family="Arial" font-size="13px" font-style="normal" font-weight="normal" text-decoration="none" x="78.97900390625" y="33.5">The Fallen Roof</text></g></g><g transform="translate(2,-6) scale(1,1)"><g><path fill="none" stroke="none"/><text fill="#000000" stroke="none" font-family="Arial" font-size="13px" font-style="normal" font-weight="bold" text-decoration="none" x="13" y="33.5">interaction</text></g></g><g transform="translate(2,-6) scale(1,1)"><rect fill="#C0C0C0" stroke="none" x="39" y="47" width="71.736328125" height="39" opacity="0.2"/></g><g transform="translate(2,-6) scale(1,1)"><rect fill="#ffffff" stroke="none" x="32" y="40" width="71.736328125" height="39"/></g><g transform="translate(2,-6) scale(1,1)"><path fill="none" stroke="#000000" d="M 32 40 L 103.736328125 40 L 103.736328125 79 L 32 79 L 32 40 Z Z" stroke-miterlimit="10"/></g><g transform="translate(2,-6) scale(1,1)"><g><path fill="none" stroke="none"/><text fill="#000000" stroke="none" font-family="Arial" font-size="13px" font-style="normal" font-weight="bold" text-decoration="none" x="49.444091796875" y="59.5">Player</text></g></g><g transform="translate(2,-6) scale(1,1)"><path fill="none" stroke="#000000" d="M 68.5 80 L 68.5 618" stroke-miterlimit="10" stroke-dasharray="3"/></g><g transform="translate(2,-6) scale(1,1)"><rect fill="#C0C0C0" stroke="none" x="183" y="47" width="71.736328125" height="39" opacity="0.2"/></g><g transform="translate(2,-6) scale(1,1)"><rect fill="#ffffff" stroke="none" x="176" y="40" width="71.736328125" height="39"/></g><g transform="translate(2,-6) scale(1,1)"><path fill="none" stroke="#000000" d="M 176 40 L 247.736328125 40 L 247.736328125 79 L 176 79 L 176 40 Z Z" stroke-miterlimit="10"/></g><g transform="translate(2,-6) scale(1,1)"><g><path fill="none" stroke="none"/><text fill="#000000" stroke="none" font-family="Arial" font-size="13px" font-style="normal" font-weight="bold" text-decoration="none" x="195.011962890625" y="59.5">World</text></g></g><g transform="translate(2,-6) scale(1,1)"><path fill="none" stroke="#000000" d="M 212.5 80 L 212.5 618" stroke-miterlimit="10" stroke-dasharray="3"/></g><g transform="translate(2,-6) scale(1,1)"><rect fill="#C0C0C0" stroke="none" x="479" y="47" width="71.736328125" height="39" opacity="0.2"/></g><g transform="translate(2,-6) scale(1,1)"><rect fill="#ffffff" stroke="none" x="472" y="40" width="71.736328125" height="39"/></g><g transform="translate(2,-6) scale(1,1)"><path fill="none" stroke="#000000" d="M 472 40 L 543.736328125 40 L 543.736328125 79 L 472 79 L 472 40 Z Z" stroke-miterlimit="10"/></g><g transform="translate(2,-6) scale(1,1)"><g><path fill="none" stroke="none"/><text fill="#000000" stroke="none" font-family="Arial" font-size="13px" font-style="normal" font-weight="bold" text-decoration="none" x="491.9736328125" y="59.5">Mobs</text></g></g><g transform="translate(2,-6) scale(1,1)"><path fill="none" stroke="#000000" d="M 508.5 80 L 508.5 768" stroke-miterlimit="10" stroke-dasharray="3"/></g><g transform="translate(2,-6) scale(1,1)"><rect fill="#C0C0C0" stroke="none" x="311" y="47" width="77.5126953125" height="39" opacity="0.2"/></g><g transform="translate(2,-6) scale(1,1)"><rect fill="#ffffff" stroke="none" x="304" y="40" width="77.5126953125" height="39"/></g><g transform="translate(2,-6) scale(1,1)"><path fill="none" stroke="#000000" d="M 304 40 L 381.5126953125 40 L 381.5126953125 79 L 304 79 L 304 40 Z Z" stroke-miterlimit="10"/></g><g transform="translate(2,-6) scale(1,1)"><g><path fill="none" stroke="none"/><text fill="#000000" stroke="none" font-family="Arial" font-size="13px" font-style="normal" font-weight="bold" text-decoration="none" x="326.864990234375" y="59.5">Items</text></g></g><g transform="translate(2,-6) scale(1,1)"><path fill="none" stroke="#000000" d="M 343.5 80 L 343.5 768" stroke-miterlimit="10" stroke-dasharray="3"/></g><g transform="translate(2,-6) scale(1,1)"><path fill="none" stroke="#000000" d="M 68 120 L 205 120" stroke-miterlimit="10"/></g><g transform="translate(2,-6) scale(1,1)"><path fill="#000000" stroke="none" d="M 194.83732514237585 124.20951775601598 L 205 120 L 194.83732514237585 115.79048224398402"/></g><g transform="translate(2,-6) scale(1,1)"><path fill="none" stroke="#000000" d="M 194.83732514237585 124.20951775601598 L 205 120 L 194.83732514237585 115.79048224398402 L 194.83732514237585 124.20951775601598" stroke-miterlimit="10"/></g><g transform="translate(2,-6) scale(1,1)"><g><path fill="none" stroke="none"/><text fill="#000000" stroke="none" font-family="Arial" font-size="13px" font-style="normal" font-weight="normal" text-decoration="none" x="110.594970703125" y="116.5">1 : move</text></g></g><g transform="translate(2,-6) scale(1,1)"><rect fill="#ffffff" stroke="none" x="205" y="120" width="13" height="28"/></g><g transform="translate(2,-6) scale(1,1)"><path fill="none" stroke="#000000" d="M 205 120 L 218 120 L 218 148 L 205 148 L 205 120 Z Z" stroke-miterlimit="10"/></g><g transform="translate(2,-6) scale(1,1)"><path fill="none" stroke="#000000" d="M 212 224 L 74 224" stroke-miterlimit="10"/></g><g transform="translate(2,-6) scale(1,1)"><path fill="#000000" stroke="none" d="M 84.16267485762415 219.790482243984 L 74 224 L 84.16267485762415 228.209517756016"/></g><g transform="translate(2,-6) scale(1,1)"><path fill="none" stroke="#000000" d="M 84.16267485762415 219.790482243984 L 74 224 L 84.16267485762415 228.209517756016 L 84.16267485762415 219.790482243984" stroke-miterlimit="10"/></g><g transform="translate(2,-6) scale(1,1)"><g><path fill="none" stroke="none"/><text fill="#000000" stroke="none" font-family="Arial" font-size="13px" font-style="normal" font-weight="normal" text-decoration="none" x="91.5" y="240.5">2 : showQuestion</text></g></g><g transform="translate(2,-6) scale(1,1)"><rect fill="#ffffff" stroke="none" x="61" y="224" width="13" height="56"/></g><g transform="translate(2,-6) scale(1,1)"><path fill="none" stroke="#000000" d="M 61 224 L 74 224 L 74 280 L 61 280 L 61 224 Z Z" stroke-miterlimit="10"/></g><g transform="translate(2,-6) scale(1,1)"><path fill="none" stroke="#000000" d="M 74 264 L 205 264" stroke-miterlimit="10"/></g><g transform="translate(2,-6) scale(1,1)"><path fill="#000000" stroke="none" d="M 194.83732514237585 268.209517756016 L 205 264 L 194.83732514237585 259.790482243984"/></g><g transform="translate(2,-6) scale(1,1)"><path fill="none" stroke="#000000" d="M 194.83732514237585 268.209517756016 L 205 264 L 194.83732514237585 259.790482243984 L 194.83732514237585 268.209517756016" stroke-miterlimit="10"/></g><g transform="translate(2,-6) scale(1,1)"><g><path fill="none" stroke="none"/><text fill="#000000" stroke="none" font-family="Arial" font-size="13px" font-style="normal" font-weight="normal" text-decoration="none" x="78.5" y="259.5">3 : answerQuestion</text></g></g><g transform="translate(2,-6) scale(1,1)"><rect fill="#ffffff" stroke="none" x="205" y="264" width="13" height="40"/></g><g transform="translate(2,-6) scale(1,1)"><path fill="none" stroke="#000000" d="M 205 264 L 218 264 L 218 304 L 205 304 L 205 264 Z Z" stroke-miterlimit="10"/></g><g transform="translate(2,-6) scale(1,1)"><path fill="none" stroke="#000000" d="M 212 344 L 336 344" stroke-miterlimit="10"/></g><g transform="translate(2,-6) scale(1,1)"><path fill="#000000" stroke="none" d="M 325.83732514237585 348.209517756016 L 336 344 L 325.83732514237585 339.790482243984"/></g><g transform="translate(2,-6) scale(1,1)"><path fill="none" stroke="#000000" d="M 325.83732514237585 348.209517756016 L 336 344 L 325.83732514237585 339.790482243984 L 325.83732514237585 348.209517756016" stroke-miterlimit="10"/></g><g transform="translate(2,-6) scale(1,1)"><g><path fill="none" stroke="none"/><text fill="#000000" stroke="none" font-family="Arial" font-size="13px" font-style="normal" font-weight="normal" text-decoration="none" x="237.0390625" y="340.5">4 : pickItems</text></g></g><g transform="translate(2,-6) scale(1,1)"><rect fill="#ffffff" stroke="none" x="336" y="344" width="13" height="28"/></g><g transform="translate(2,-6) scale(1,1)"><path fill="none" stroke="#000000" d="M 336 344 L 349 344 L 349 372 L 336 372 L 336 344 Z Z" stroke-miterlimit="10"/></g><g transform="translate(2,-6) scale(1,1)"><path fill="none" stroke="#000000" d="M 343 393 L 218 393" stroke-miterlimit="10"/></g><g transform="translate(2,-6) scale(1,1)"><path fill="#000000" stroke="none" d="M 228.16267485762415 388.790482243984 L 218 393 L 228.16267485762415 397.209517756016"/></g><g transform="translate(2,-6) scale(1,1)"><path fill="none" stroke="#000000" d="M 228.16267485762415 388.790482243984 L 218 393 L 228.16267485762415 397.209517756016 L 228.16267485762415 388.790482243984" stroke-miterlimit="10"/></g><g transform="translate(2,-6) scale(1,1)"><g><path fill="none" stroke="none"/><text fill="#000000" stroke="none" font-family="Arial" font-size="13px" font-style="normal" font-weight="normal" text-decoration="none" x="235.5" y="409.5">5 : pickedItems</text></g></g><g transform="translate(2,-6) scale(1,1)"><rect fill="#ffffff" stroke="none" x="205" y="393" width="13" height="28"/></g><g transform="translate(2,-6) scale(1,1)"><path fill="none" stroke="#000000" d="M 205 393 L 218 393 L 218 421 L 205 421 L 205 393 Z Z" stroke-miterlimit="10"/></g><g transform="translate(2,-6) scale(1,1)"><path fill="none" stroke="#000000" d="M 212 440 L 501 440" stroke-miterlimit="10"/></g><g transform="translate(2,-6) scale(1,1)"><path fill="#000000" stroke="none" d="M 490.83732514237585 444.209517756016 L 501 440 L 490.83732514237585 435.790482243984"/></g><g transform="translate(2,-6) scale(1,1)"><path fill="none" stroke="#000000" d="M 490.83732514237585 444.209517756016 L 501 440 L 490.83732514237585 435.790482243984 L 490.83732514237585 444.209517756016" stroke-miterlimit="10"/></g><g transform="translate(2,-6) scale(1,1)"><g><path fill="none" stroke="none"/><text fill="#000000" stroke="none" font-family="Arial" font-size="13px" font-style="normal" font-weight="normal" text-decoration="none" x="321.079833984375" y="436.5">6 : takeTurn</text></g></g><g transform="translate(2,-6) scale(1,1)"><rect fill="#ffffff" stroke="none" x="501" y="440" width="13" height="28"/></g><g transform="translate(2,-6) scale(1,1)"><path fill="none" stroke="#000000" d="M 501 440 L 514 440 L 514 468 L 501 468 L 501 440 Z Z" stroke-miterlimit="10"/></g><g transform="translate(2,-6) scale(1,1)"><path fill="none" stroke="#000000" d="M 508 488 L 218 488" stroke-miterlimit="10"/></g><g transform="translate(2,-6) scale(1,1)"><path fill="#000000" stroke="none" d="M 228.16267485762415 483.790482243984 L 218 488 L 228.16267485762415 492.209517756016"/></g><g transform="translate(2,-6) scale(1,1)"><path fill="none" stroke="#000000" d="M 228.16267485762415 483.790482243984 L 218 488 L 228.16267485762415 492.209517756016 L 228.16267485762415 483.790482243984" stroke-miterlimit="10"/></g><g transform="translate(2,-6) scale(1,1)"><g><path fill="none" stroke="none"/><text fill="#000000" stroke="none" font-family="Arial" font-size="13px" font-style="normal" font-weight="normal" text-decoration="none" x="323.944091796875" y="504.5">7 : turnTaken</text></g></g><g transform="translate(2,-6) scale(1,1)"><rect fill="#ffffff" stroke="none" x="205" y="488" width="13" height="28"/></g><g transform="translate(2,-6) scale(1,1)"><path fill="none" stroke="#000000" d="M 205 488 L 218 488 L 218 516 L 205 516 L 205 488 Z Z" stroke-miterlimit="10"/></g><g transform="translate(2,-6) scale(1,1)"><path fill="none" stroke="#000000" d="M 212 568 L 74 568" stroke-miterlimit="10"/></g><g transform="translate(2,-6) scale(1,1)"><path fill="#000000" stroke="none" d="M 84.16267485762415 563.790482243984 L 74 568 L 84.16267485762415 572.209517756016"/></g><g transform="translate(2,-6) scale(1,1)"><path fill="none" stroke="#000000" d="M 84.16267485762415 563.790482243984 L 74 568 L 84.16267485762415 572.209517756016 L 84.16267485762415 563.790482243984" stroke-miterlimit="10"/></g><g transform="translate(2,-6) scale(1,1)"><g><path fill="none" stroke="none"/><text fill="#000000" stroke="none" font-family="Arial" font-size="13px" font-style="normal" font-weight="normal" text-decoration="none" x="105.700439453125" y="604.5">8 : render</text></g></g><g transform="translate(2,-6) scale(1,1)"><rect fill="#ffffff" stroke="none" x="61" y="568" width="13" height="28"/></g><g transform="translate(2,-6) scale(1,1)"><path fill="none" stroke="#000000" d="M 61 568 L 74 568 L 74 596 L 61 596 L 61 568 Z Z" stroke-miterlimit="10"/></g><g transform="translate(2,-6) scale(1,1)"><path fill="none" stroke="#000000" d="M 16 88 L 528 88 L 528 768 L 16 768 L 16 88" stroke-miterlimit="10"/></g><g transform="translate(2,-6) scale(1,1)"><path fill="#ffffff" stroke="none" d="M 16 88 L 16 110 L 84.75537109375 110 L 95.75537109375 99 L 95.75537109375 88 L 16 88"/></g><g transform="translate(2,-6) scale(1,1)"><path fill="none" stroke="#000000" d="M 16 88 L 16 110 L 84.75537109375 110 L 95.75537109375 99 L 95.75537109375 88 L 16 88 L 16 88" stroke-miterlimit="10"/></g><g transform="translate(2,-6) scale(1,1)"><g><path fill="none" stroke="none"/><text fill="#000000" stroke="none" font-family="Arial" font-size="13px" font-style="normal" font-weight="normal" text-decoration="none" x="51.578125" y="105.5">main</text></g></g><g transform="translate(2,-6) scale(1,1)"><g><path fill="none" stroke="none"/><text fill="#000000" stroke="none" font-family="Arial" font-size="13px" font-style="normal" font-weight="bold" text-decoration="none" x="21" y="105.5">loop</text></g></g><g transform="translate(2,-6) scale(1,1)"><g><path fill="none" stroke="none"/><text fill="#000000" stroke="none" font-family="Arial" font-size="13px" font-style="normal" font-weight="normal" text-decoration="none" x="35.5" y="138.5">[isAlive]</text></g></g><g transform="translate(2,-6) scale(1,1)"><path fill="none" stroke="#000000" d="M 48 152 L 224.576171875 152 L 224.576171875 328 L 48 328 L 48 152" stroke-miterlimit="10"/></g><g transform="translate(2,-6) scale(1,1)"><path fill="#ffffff" stroke="none" d="M 48 152 L 48 174 L 165.41650390625 174 L 176.41650390625 163 L 176.41650390625 152 L 48 152"/></g><g transform="translate(2,-6) scale(1,1)"><path fill="none" stroke="#000000" d="M 48 152 L 48 174 L 165.41650390625 174 L 176.41650390625 163 L 176.41650390625 152 L 48 152 L 48 152" stroke-miterlimit="10"/></g><g transform="translate(2,-6) scale(1,1)"><g><path fill="none" stroke="none"/><text fill="#000000" stroke="none" font-family="Arial" font-size="13px" font-style="normal" font-weight="normal" text-decoration="none" x="77.07177734375" y="169.5">destinationTile</text></g></g><g transform="translate(2,-6) scale(1,1)"><g><path fill="none" stroke="none"/><text fill="#000000" stroke="none" font-family="Arial" font-size="13px" font-style="normal" font-weight="bold" text-decoration="none" x="53" y="169.5">opt</text></g></g><g transform="translate(2,-6) scale(1,1)"><g><path fill="none" stroke="none"/><text fill="#000000" stroke="none" font-family="Arial" font-size="13px" font-style="normal" font-weight="normal" text-decoration="none" x="67.5" y="202.5">[questionAsked]</text></g></g></g></svg>