<svg version="1.1" xmlns="http://www.w3.org/2000/svg" xmlns:xlink="http://www.w3.org/1999/xlink" width="303" height="614"><defs/><g><g transform="translate(5,-6) scale(1,1)"><path fill="none" stroke="#000000" d="M 5 16 L 288 16 L 288 610 L 5 610 L 5 16" stroke-miterlimit="10"/></g><g transform="translate(5,-6) scale(1,1)"><path fill="#ffffff" stroke="none" d="M 5 16 L 5 38 L 173.470703125 38 L 184.470703125 27 L 184.470703125 16 L 5 16"/></g><g transform="translate(5,-6) scale(1,1)"><path fill="none" stroke="#000000" d="M 5 16 L 5 38 L 173.470703125 38 L 184.470703125 27 L 184.470703125 16 L 5 16 L 5 16" stroke-miterlimit="10"/></g><g transform="translate(5,-6) scale(1,1)"><g><path fill="none" stroke="none"/><text fill="#000000" stroke="none" font-family="Arial" font-size="13px" font-style="normal" font-weight="normal" text-decoration="none" x="75.97900390625" y="33.5">The Fallen Roof</text></g></g><g transform="translate(5,-6) scale(1,1)"><g><path fill="none" stroke="none"/><text fill="#000000" stroke="none" font-family="Arial" font-size="13px" font-style="normal" font-weight="bold" text-decoration="none" x="10" y="33.5">interaction</text></g></g><g transform="translate(5,-6) scale(1,1)"><rect fill="#C0C0C0" stroke="none" x="31" y="47" width="71.736328125" height="39" opacity="0.2"/></g><g transform="translate(5,-6) scale(1,1)"><rect fill="#ffffff" stroke="none" x="24" y="40" width="71.736328125" height="39"/></g><g transform="translate(5,-6) scale(1,1)"><path fill="none" stroke="#000000" d="M 24 40 L 95.736328125 40 L 95.736328125 79 L 24 79 L 24 40 Z Z" stroke-miterlimit="10"/></g><g transform="translate(5,-6) scale(1,1)"><g><path fill="none" stroke="none"/><text fill="#000000" stroke="none" font-family="Arial" font-size="13px" font-style="normal" font-weight="bold" text-decoration="none" x="41.444091796875" y="59.5">Player</text></g></g><g transform="translate(5,-6) scale(1,1)"><path fill="none" stroke="#000000" d="M 60.5 80 L 60.5 584" stroke-miterlimit="10" stroke-dasharray="3"/></g><g transform="translate(5,-6) scale(1,1)"><rect fill="#C0C0C0" stroke="none" x="175" y="47" width="71.736328125" height="39" opacity="0.2"/></g><g transform="translate(5,-6) scale(1,1)"><rect fill="#ffffff" stroke="none" x="168" y="40" width="71.736328125" height="39"/></g><g transform="translate(5,-6) scale(1,1)"><path fill="none" stroke="#000000" d="M 168 40 L 239.736328125 40 L 239.736328125 79 L 168 79 L 168 40 Z Z" stroke-miterlimit="10"/></g><g transform="translate(5,-6) scale(1,1)"><g><path fill="none" stroke="none"/><text fill="#000000" stroke="none" font-family="Arial" font-size="13px" font-style="normal" font-weight="bold" text-decoration="none" x="187.011962890625" y="59.5">World</text></g></g><g transform="translate(5,-6) scale(1,1)"><path fill="none" stroke="#000000" d="M 204.5 80 L 204.5 584" stroke-miterlimit="10" stroke-dasharray="3"/></g><g transform="translate(5,-6) scale(1,1)"><path fill="none" stroke="#000000" d="M 60 120 L 197 120" stroke-miterlimit="10"/></g><g transform="translate(5,-6) scale(1,1)"><path fill="#000000" stroke="none" d="M 186.83732514237585 124.20951775601598 L 197 120 L 186.83732514237585 115.79048224398402"/></g><g transform="translate(5,-6) scale(1,1)"><path fill="none" stroke="#000000" d="M 186.83732514237585 124.20951775601598 L 197 120 L 186.83732514237585 115.79048224398402 L 186.83732514237585 124.20951775601598" stroke-miterlimit="10"/></g><g transform="translate(5,-6) scale(1,1)"><g><path fill="none" stroke="none"/><text fill="#000000" stroke="none" font-family="Arial" font-size="13px" font-style="normal" font-weight="normal" text-decoration="none" x="102.594970703125" y="116.5">1 : move</text></g></g><g transform="translate(5,-6) scale(1,1)"><rect fill="#ffffff" stroke="none" x="197" y="120" width="13" height="28"/></g><g transform="translate(5,-6) scale(1,1)"><path fill="none" stroke="#000000" d="M 197 120 L 210 120 L 210 148 L 197 148 L 197 120 Z Z" stroke-miterlimit="10"/></g><g transform="translate(5,-6) scale(1,1)"><path fill="none" stroke="#000000" d="M 204 224 L 66 224" stroke-miterlimit="10"/></g><g transform="translate(5,-6) scale(1,1)"><path fill="#000000" stroke="none" d="M 76.16267485762415 219.790482243984 L 66 224 L 76.16267485762415 228.209517756016"/></g><g transform="translate(5,-6) scale(1,1)"><path fill="none" stroke="#000000" d="M 76.16267485762415 219.790482243984 L 66 224 L 76.16267485762415 228.209517756016 L 76.16267485762415 219.790482243984" stroke-miterlimit="10"/></g><g transform="translate(5,-6) scale(1,1)"><g><path fill="none" stroke="none"/><text fill="#000000" stroke="none" font-family="Arial" font-size="13px" font-style="normal" font-weight="normal" text-decoration="none" x="83.5" y="240.5">2 : showQuestion</text></g></g><g transform="translate(5,-6) scale(1,1)"><rect fill="#ffffff" stroke="none" x="53" y="224" width="13" height="56"/></g><g transform="translate(5,-6) scale(1,1)"><path fill="none" stroke="#000000" d="M 53 224 L 66 224 L 66 280 L 53 280 L 53 224 Z Z" stroke-miterlimit="10"/></g><g transform="translate(5,-6) scale(1,1)"><path fill="none" stroke="#000000" d="M 66 264 L 197 264" stroke-miterlimit="10"/></g><g transform="translate(5,-6) scale(1,1)"><path fill="#000000" stroke="none" d="M 186.83732514237585 268.209517756016 L 197 264 L 186.83732514237585 259.790482243984"/></g><g transform="translate(5,-6) scale(1,1)"><path fill="none" stroke="#000000" d="M 186.83732514237585 268.209517756016 L 197 264 L 186.83732514237585 259.790482243984 L 186.83732514237585 268.209517756016" stroke-miterlimit="10"/></g><g transform="translate(5,-6) scale(1,1)"><g><path fill="none" stroke="none"/><text fill="#000000" stroke="none" font-family="Arial" font-size="13px" font-style="normal" font-weight="normal" text-decoration="none" x="70.5" y="259.5">3 : answerQuestion</text></g></g><g transform="translate(5,-6) scale(1,1)"><rect fill="#ffffff" stroke="none" x="197" y="264" width="13" height="40"/></g><g transform="translate(5,-6) scale(1,1)"><path fill="none" stroke="#000000" d="M 197 264 L 210 264 L 210 304 L 197 304 L 197 264 Z Z" stroke-miterlimit="10"/></g><g transform="translate(5,-6) scale(1,1)"><path fill="none" stroke="#000000" d="M 197 289 L 66 289" stroke-miterlimit="10"/></g><g transform="translate(5,-6) scale(1,1)"><path fill="#000000" stroke="none" d="M 76.16267485762415 284.790482243984 L 66 289 L 76.16267485762415 293.209517756016"/></g><g transform="translate(5,-6) scale(1,1)"><path fill="none" stroke="#000000" d="M 76.16267485762415 284.790482243984 L 66 289 L 76.16267485762415 293.209517756016 L 76.16267485762415 284.790482243984" stroke-miterlimit="10"/></g><g transform="translate(5,-6) scale(1,1)"><g><path fill="none" stroke="none"/><text fill="#000000" stroke="none" font-family="Arial" font-size="13px" font-style="normal" font-weight="normal" text-decoration="none" x="101.700439453125" y="305.5">4 : render</text></g></g><g transform="translate(5,-6) scale(1,1)"><rect fill="#ffffff" stroke="none" x="53" y="289" width="13" height="31"/></g><g transform="translate(5,-6) scale(1,1)"><path fill="none" stroke="#000000" d="M 53 289 L 66 289 L 66 320 L 53 320 L 53 289 Z Z" stroke-miterlimit="10"/></g><g transform="translate(5,-6) scale(1,1)"><path fill="none" stroke="#000000" d="M 204 384 L 66 384" stroke-miterlimit="10"/></g><g transform="translate(5,-6) scale(1,1)"><path fill="#000000" stroke="none" d="M 76.16267485762415 379.790482243984 L 66 384 L 76.16267485762415 388.209517756016"/></g><g transform="translate(5,-6) scale(1,1)"><path fill="none" stroke="#000000" d="M 76.16267485762415 379.790482243984 L 66 384 L 76.16267485762415 388.209517756016 L 76.16267485762415 379.790482243984" stroke-miterlimit="10"/></g><g transform="translate(5,-6) scale(1,1)"><g><path fill="none" stroke="none"/><text fill="#000000" stroke="none" font-family="Arial" font-size="13px" font-style="normal" font-weight="normal" text-decoration="none" x="94.5" y="379.5">5 : gameOver</text></g></g><g transform="translate(5,-6) scale(1,1)"><rect fill="#ffffff" stroke="none" x="53" y="384" width="13" height="28"/></g><g transform="translate(5,-6) scale(1,1)"><path fill="none" stroke="#000000" d="M 53 384 L 66 384 L 66 412 L 53 412 L 53 384 Z Z" stroke-miterlimit="10"/></g><g transform="translate(5,-6) scale(1,1)"><path fill="none" stroke="#000000" d="M 204 480 L 66 480" stroke-miterlimit="10"/></g><g transform="translate(5,-6) scale(1,1)"><path fill="#000000" stroke="none" d="M 76.16267485762415 475.790482243984 L 66 480 L 76.16267485762415 484.209517756016"/></g><g transform="translate(5,-6) scale(1,1)"><path fill="none" stroke="#000000" d="M 76.16267485762415 475.790482243984 L 66 480 L 76.16267485762415 484.209517756016 L 76.16267485762415 475.790482243984" stroke-miterlimit="10"/></g><g transform="translate(5,-6) scale(1,1)"><g><path fill="none" stroke="none"/><text fill="#000000" stroke="none" font-family="Arial" font-size="13px" font-style="normal" font-weight="normal" text-decoration="none" x="105.700439453125" y="496.5">6 : render</text></g></g><g transform="translate(5,-6) scale(1,1)"><rect fill="#ffffff" stroke="none" x="53" y="480" width="13" height="28"/></g><g transform="translate(5,-6) scale(1,1)"><path fill="none" stroke="#000000" d="M 53 480 L 66 480 L 66 508 L 53 508 L 53 480 Z Z" stroke-miterlimit="10"/></g><g transform="translate(5,-6) scale(1,1)"><path fill="none" stroke="#000000" d="M 40 152 L 216.576171875 152 L 216.576171875 568 L 40 568 L 40 152" stroke-miterlimit="10"/></g><g transform="translate(5,-6) scale(1,1)"><path fill="#ffffff" stroke="none" d="M 40 152 L 40 174 L 153.07470703125 174 L 164.07470703125 163 L 164.07470703125 152 L 40 152"/></g><g transform="translate(5,-6) scale(1,1)"><path fill="none" stroke="#000000" d="M 40 152 L 40 174 L 153.07470703125 174 L 164.07470703125 163 L 164.07470703125 152 L 40 152 L 40 152" stroke-miterlimit="10"/></g><g transform="translate(5,-6) scale(1,1)"><g><path fill="none" stroke="none"/><text fill="#000000" stroke="none" font-family="Arial" font-size="13px" font-style="normal" font-weight="normal" text-decoration="none" x="64.72998046875" y="169.5">destinationTile</text></g></g><g transform="translate(5,-6) scale(1,1)"><g><path fill="none" stroke="none"/><text fill="#000000" stroke="none" font-family="Arial" font-size="13px" font-style="normal" font-weight="bold" text-decoration="none" x="45" y="169.5">alt</text></g></g><g transform="translate(5,-6) scale(1,1)"><g><path fill="none" stroke="none"/><text fill="#000000" stroke="none" font-family="Arial" font-size="13px" font-style="normal" font-weight="normal" text-decoration="none" x="59.5" y="202.5">[questionAsked]</text></g></g><g transform="translate(5,-6) scale(1,1)"><path fill="none" stroke="#000000" d="M 40 329 L 216.576171875 329" stroke-miterlimit="10" stroke-dasharray="10,3"/></g><g transform="translate(5,-6) scale(1,1)"><g><path fill="none" stroke="none"/><text fill="#000000" stroke="none" font-family="Arial" font-size="13px" font-style="normal" font-weight="normal" text-decoration="none" x="59.5" y="356.5">[isDead]</text></g></g><g transform="translate(5,-6) scale(1,1)"><path fill="none" stroke="#000000" d="M 40 441 L 216.576171875 441" stroke-miterlimit="10" stroke-dasharray="10,3"/></g><g transform="translate(5,-6) scale(1,1)"><g><path fill="none" stroke="none"/><text fill="#000000" stroke="none" font-family="Arial" font-size="13px" font-style="normal" font-weight="normal" text-decoration="none" x="59.5" y="468.5">[else]</text></g></g><g transform="translate(5,-6) scale(1,1)"><path fill="none" stroke="#000000" d="M 16 88 L 256 88 L 256 592 L 16 592 L 16 88" stroke-miterlimit="10"/></g><g transform="translate(5,-6) scale(1,1)"><path fill="#ffffff" stroke="none" d="M 16 88 L 16 110 L 84.75537109375 110 L 95.75537109375 99 L 95.75537109375 88 L 16 88"/></g><g transform="translate(5,-6) scale(1,1)"><path fill="none" stroke="#000000" d="M 16 88 L 16 110 L 84.75537109375 110 L 95.75537109375 99 L 95.75537109375 88 L 16 88 L 16 88" stroke-miterlimit="10"/></g><g transform="translate(5,-6) scale(1,1)"><g><path fill="none" stroke="none"/><text fill="#000000" stroke="none" font-family="Arial" font-size="13px" font-style="normal" font-weight="normal" text-decoration="none" x="51.578125" y="105.5">main</text></g></g><g transform="translate(5,-6) scale(1,1)"><g><path fill="none" stroke="none"/><text fill="#000000" stroke="none" font-family="Arial" font-size="13px" font-style="normal" font-weight="bold" text-decoration="none" x="21" y="105.5">loop</text></g></g></g></svg>